<svg xmlns="http://www.w3.org/2000/svg" xmlns:xlink="http://www.w3.org/1999/xlink" xmlns:lucid="lucid" width="1171.37" height="502"><g transform="translate(-95 -139)" lucid:page-tab-id="0_0"><path d="M0 0h1360v1760H0z" fill="#fff"/><path d="M315 160h740v460H315z" stroke="#5e5e5e" stroke-width="3" fill="#fff" filter="url(#a)"/><path d="M355 295h140v80H355z" stroke="#5e5e5e" stroke-width="3" fill="#ffbbb1"/><use xlink:href="#b" transform="matrix(1,0,0,1,360,300) translate(12.623456790123463 39.65277777777778)"/><path d="M355 495h140v80H355z" stroke="#5e5e5e" stroke-width="3" fill="#ffeca9"/><use xlink:href="#c" transform="matrix(1,0,0,1,360,500) translate(53.91975308641975 39.65277777777778)"/><path d="M875 195h140v390H875z" stroke="#5e5e5e" stroke-width="3" fill="#c7e8ac"/><use xlink:href="#d" transform="matrix(1,0,0,1,880,200) translate(41.60493827160494 195.90277777777777)"/><path d="M675 505h140v80H675z" stroke="#5e5e5e" stroke-width="3" fill="#ffeca9"/><use xlink:href="#e" transform="matrix(1,0,0,1,680,510) translate(15.895061728395063 39.65277777777778)"/><path d="M115 495h140v80H115z" stroke="#5e5e5e" stroke-width="3" fill="#b2d6ef"/><use xlink:href="#f" transform="matrix(1,0,0,1,120,500) translate(19.598765432098787 26.52777777777777)"/><use xlink:href="#g" transform="matrix(1,0,0,1,120,500) translate(17.53086419753088 53.19444444444443)"/><path d="M115 295h140v80H115z" stroke="#5e5e5e" stroke-width="3" fill="#b2d6ef"/><use xlink:href="#h" transform="matrix(1,0,0,1,120,300) translate(30.92592592592593 39.65277777777777)"/><path d="M257.5 335H335" stroke="#5e5e5e" stroke-width="2" fill="none"/><path d="M257.53 336h-1.03v-2h1.03z" fill="#5e5e5e"/><path d="M350.26 335L336 339.64v-9.28z" stroke="#5e5e5e" stroke-width="2" fill="#5e5e5e"/><path d="M257.5 535H335" stroke="#5e5e5e" stroke-width="2" fill="none"/><path d="M257.53 536h-1.03v-2h1.03z" fill="#5e5e5e"/><path d="M350.26 535L336 539.64v-9.28z" stroke="#5e5e5e" stroke-width="2" fill="#5e5e5e"/><path d="M515 395h140v80H515z" stroke="#5e5e5e" stroke-width="3" fill="#ffeca9"/><use xlink:href="#i" transform="matrix(1,0,0,1,520,400) translate(42.19135802469136 39.65277777777778)"/><path d="M115 395h140v80H115z" stroke="#5e5e5e" stroke-width="3" fill="#b2d6ef"/><use xlink:href="#j" transform="matrix(1,0,0,1,120,400) translate(32.37654320987656 39.65277777777777)"/><path d="M257.5 435H495" stroke="#5e5e5e" stroke-width="2" fill="none"/><path d="M257.53 436h-1.03v-2h1.03z" fill="#5e5e5e"/><path d="M510.26 435L496 439.64v-9.28z" stroke="#5e5e5e" stroke-width="2" fill="#5e5e5e"/><path d="M355 195h140v80H355z" stroke="#5e5e5e" stroke-width="3" fill="#ffbbb1"/><use xlink:href="#k" transform="matrix(1,0,0,1,360,200) translate(19.598765432098766 26.52777777777778)"/><use xlink:href="#l" transform="matrix(1,0,0,1,360,200) translate(40.339506172839506 53.19444444444445)"/><path d="M497.5 357.33H579c3.3 0 6 2.7 6 6V375" stroke="#5e5e5e" stroke-width="2" fill="none"/><path d="M497.53 358.33h-1.03v-2h1.03z" fill="#5e5e5e"/><path d="M585 390.26L580.36 376h9.28z" stroke="#5e5e5e" stroke-width="2" fill="#5e5e5e"/><path d="M497.5 517.67H579c3.3 0 6-2.7 6-6V495" stroke="#5e5e5e" stroke-width="2" fill="none"/><path d="M497.53 518.67h-1.03v-2h1.03z" fill="#5e5e5e"/><path d="M585 479.74l4.64 14.26h-9.28z" stroke="#5e5e5e" stroke-width="2" fill="#5e5e5e"/><path d="M497.5 235H855" stroke="#5e5e5e" stroke-width="2" fill="none"/><path d="M497.53 236h-1.03v-2h1.03z" fill="#5e5e5e"/><path d="M870.26 235L856 239.64v-9.28z" stroke="#5e5e5e" stroke-width="2" fill="#5e5e5e"/><path d="M817.5 545H855" stroke="#5e5e5e" stroke-width="2" fill="none"/><path d="M817.53 546h-1.03v-2h1.03z" fill="#5e5e5e"/><path d="M870.26 545L856 549.64v-9.28z" stroke="#5e5e5e" stroke-width="2" fill="#5e5e5e"/><path d="M497.5 545H655" stroke="#5e5e5e" stroke-width="2" fill="none"/><path d="M497.53 546h-1.03v-2h1.03z" fill="#5e5e5e"/><path d="M670.26 545L656 549.64v-9.28z" stroke="#5e5e5e" stroke-width="2" fill="#5e5e5e"/><path d="M1100 516h140v40h-140z" stroke="#5e5e5e" stroke-width="3" fill="#ffbbb1"/><use xlink:href="#m" transform="matrix(1,0,0,1,1105,521) translate(25.543209876543223 17.97222222222222)"/><path d="M1100 468h140v40h-140z" stroke="#5e5e5e" stroke-width="3" fill="#ffeca9"/><use xlink:href="#n" transform="matrix(1,0,0,1,1105,473) translate(43.320987654320994 17.97222222222222)"/><path d="M1100 420h140v40h-140z" stroke="#5e5e5e" stroke-width="3" fill="#c7e8ac"/><use xlink:href="#o" transform="matrix(1,0,0,1,1105,425) translate(20.827160493827172 17.97222222222222)"/><path d="M1100 564h140v40h-140z" stroke="#5e5e5e" stroke-width="3" fill="#b2d6ef"/><use xlink:href="#p" transform="matrix(1,0,0,1,1105,569) translate(32.4567901234568 17.97222222222222)"/><path d="M1105 195h140v80h-140z" stroke="#5e5e5e" stroke-width="3" fill="#b2d6ef"/><use xlink:href="#q" transform="matrix(1,0,0,1,1110,200) translate(-4.629629629629605 26.111111111111114)"/><use xlink:href="#r" transform="matrix(1,0,0,1,1110,200) translate(18.148148148148167 52.77777777777777)"/><path d="M1017.5 235h4.25m8.5 0h8.5m8.5 0h8.5m8.5 0h8.5m8.5 0h8.5m8.5 0h4.25" stroke="#5e5e5e" stroke-width="2" fill="none"/><path d="M1017.53 236h-1.03v-2h1.03zM1103.5 236h-1.03v-2h1.03z" fill="#5e5e5e"/><path d="M497.5 312h4.08m8.15 0h8.15m8.15 0h8.15m8.16 0h8.15m8.14 0h8.15m8.15 0h8.15m8.15 0h8.15m8.15 0h8.16m8.16 0H632m8.16 0h8.16m8.15 0h8.15m8.15 0h8.15m8.16 0h8.15m8.15 0h8.15m8.15 0h8.16m8.15 0h8.14m8.15 0h8.15m8.15 0h8.15m8.15 0h8.15m8.16 0h8.16m8.15 0h8.16m8.16 0h8.15m8.15 0h8.15m8.15 0h4.08" stroke="#5e5e5e" stroke-width="2" fill="none"/><path d="M497.53 313h-1.03v-2h1.03zM873.5 313h-1.03v-2h1.03z" fill="#5e5e5e"/><path d="M657.5 435h4.08m8.14 0h8.15m8.15 0h8.15m8.16 0h8.14m8.15 0h8.15m8.15 0H739l3.03.82 2.15 2.15.82 3.03v3.84m0 7.7v7.68m0 7.7v7.67m0 7.68v7.7m0 7.68v3.84" stroke="#5e5e5e" stroke-width="2" fill="none"/><path d="M657.53 436h-1.03v-2h1.03zM746 503.5h-2v-1.03h2z" fill="#5e5e5e"/><defs><filter id="a" filterUnits="objectBoundingBox" x="-.01" y="-.01" width="1.03" height="1.04"><feOffset result="offOut" in="SourceAlpha" dy="6"/><feGaussianBlur result="blurOut" in="offOut" stdDeviation="5"/><feColorMatrix result="colorOut" in="blurOut" values="0 0 0 0 0 0 0 0 0 0 0 0 0 0 0 0 0 0 0.5019607843137255 0"/><feBlend in="SourceGraphic" in2="colorOut"/></filter><path fill="#333" d="M185-189c-5-48-123-54-124 2 14 75 158 14 163 119 3 78-121 87-175 55-17-10-28-26-33-46l33-7c5 56 141 63 141-1 0-78-155-14-162-118-5-82 145-84 179-34 5 7 8 16 11 25" id="s"/><path fill="#333" d="M30 0v-248h187v28H63v79h144v27H63v87h162V0H30" id="t"/><path fill="#333" d="M212-179c-10-28-35-45-73-45-59 0-87 40-87 99 0 60 29 101 89 101 43 0 62-24 78-52l27 14C228-24 195 4 139 4 59 4 22-46 18-125c-6-104 99-153 187-111 19 9 31 26 39 46" id="u"/><path fill="#333" d="M233-177c-1 41-23 64-60 70L243 0h-38l-65-103H63V0H30v-248c88 3 205-21 203 71zM63-129c60-2 137 13 137-47 0-61-80-42-137-45v92" id="v"/><path fill="#333" d="M127-220V0H93v-220H8v-28h204v28h-85" id="w"/><g id="b"><use transform="matrix(0.06172839506172839,0,0,0.06172839506172839,0,0)" xlink:href="#s"/><use transform="matrix(0.06172839506172839,0,0,0.06172839506172839,14.814814814814813,0)" xlink:href="#t"/><use transform="matrix(0.06172839506172839,0,0,0.06172839506172839,29.629629629629626,0)" xlink:href="#u"/><use transform="matrix(0.06172839506172839,0,0,0.06172839506172839,45.61728395061728,0)" xlink:href="#v"/><use transform="matrix(0.06172839506172839,0,0,0.06172839506172839,61.60493827160493,0)" xlink:href="#t"/><use transform="matrix(0.06172839506172839,0,0,0.06172839506172839,76.41975308641975,0)" xlink:href="#w"/><use transform="matrix(0.06172839506172839,0,0,0.06172839506172839,89.93827160493827,0)" xlink:href="#s"/></g><path fill="#333" d="M33 0v-248h34V0H33" id="x"/><path fill="#333" d="M190 0L58-211 59 0H30v-248h39L202-35l-2-213h31V0h-41" id="y"/><g id="c"><use transform="matrix(0.06172839506172839,0,0,0.06172839506172839,0,0)" xlink:href="#x"/><use transform="matrix(0.06172839506172839,0,0,0.06172839506172839,6.172839506172839,0)" xlink:href="#y"/></g><path fill="#333" d="M140-251c81 0 123 46 123 126C263-46 219 4 140 4 59 4 17-45 17-125s42-126 123-126zm0 227c63 0 89-41 89-101s-29-99-89-99c-61 0-89 39-89 99S79-25 140-24" id="z"/><path fill="#333" d="M232-93c-1 65-40 97-104 97C67 4 28-28 28-90v-158h33c8 89-33 224 67 224 102 0 64-133 71-224h33v155" id="A"/><g id="d"><use transform="matrix(0.06172839506172839,0,0,0.06172839506172839,0,0)" xlink:href="#z"/><use transform="matrix(0.06172839506172839,0,0,0.06172839506172839,17.28395061728395,0)" xlink:href="#A"/><use transform="matrix(0.06172839506172839,0,0,0.06172839506172839,33.2716049382716,0)" xlink:href="#w"/></g><path fill="#333" d="M205 0l-28-72H64L36 0H1l101-248h38L239 0h-34zm-38-99l-47-123c-12 45-31 82-46 123h93" id="B"/><path fill="#333" d="M143 4C61 4 22-44 18-125c-5-107 100-154 193-111 17 8 29 25 37 43l-32 9c-13-25-37-40-76-40-61 0-88 39-88 99 0 61 29 100 91 101 35 0 62-11 79-27v-45h-74v-28h105v86C228-13 192 4 143 4" id="C"/><g id="e"><use transform="matrix(0.06172839506172839,0,0,0.06172839506172839,0,0)" xlink:href="#s"/><use transform="matrix(0.06172839506172839,0,0,0.06172839506172839,14.814814814814813,0)" xlink:href="#w"/><use transform="matrix(0.06172839506172839,0,0,0.06172839506172839,26.666666666666664,0)" xlink:href="#B"/><use transform="matrix(0.06172839506172839,0,0,0.06172839506172839,41.48148148148148,0)" xlink:href="#C"/><use transform="matrix(0.06172839506172839,0,0,0.06172839506172839,58.76543209876543,0)" xlink:href="#x"/><use transform="matrix(0.06172839506172839,0,0,0.06172839506172839,64.93827160493827,0)" xlink:href="#y"/><use transform="matrix(0.06172839506172839,0,0,0.06172839506172839,80.92592592592592,0)" xlink:href="#C"/></g><path fill="#333" d="M137 0h-34L2-248h35l83 218 83-218h36" id="D"/><g id="f"><use transform="matrix(0.06172839506172837,0,0,0.06172839506172837,0,0)" xlink:href="#s"/><use transform="matrix(0.06172839506172837,0,0,0.06172839506172837,14.81481481481481,0)" xlink:href="#t"/><use transform="matrix(0.06172839506172837,0,0,0.06172839506172837,29.62962962962962,0)" xlink:href="#v"/><use transform="matrix(0.06172839506172837,0,0,0.06172839506172837,45.18518518518517,0)" xlink:href="#D"/><use transform="matrix(0.06172839506172837,0,0,0.06172839506172837,59.99999999999998,0)" xlink:href="#t"/><use transform="matrix(0.06172839506172837,0,0,0.06172839506172837,74.81481481481478,0)" xlink:href="#v"/></g><path fill="#333" d="M30-248c87 1 191-15 191 75 0 78-77 80-158 76V0H30v-248zm33 125c57 0 124 11 124-50 0-59-68-47-124-48v98" id="E"/><path fill="#333" d="M63-220v92h138v28H63V0H30v-248h175v28H63" id="F"/><path fill="#333" d="M30 0v-248h33v221h125V0H30" id="G"/><g id="g"><use transform="matrix(0.06172839506172837,0,0,0.06172839506172837,0,0)" xlink:href="#E"/><use transform="matrix(0.06172839506172837,0,0,0.06172839506172837,14.81481481481481,0)" xlink:href="#v"/><use transform="matrix(0.06172839506172837,0,0,0.06172839506172837,30.802469135802458,0)" xlink:href="#z"/><use transform="matrix(0.06172839506172837,0,0,0.06172839506172837,48.0864197530864,0)" xlink:href="#F"/><use transform="matrix(0.06172839506172837,0,0,0.06172839506172837,61.604938271604915,0)" xlink:href="#x"/><use transform="matrix(0.06172839506172837,0,0,0.06172839506172837,67.77777777777776,0)" xlink:href="#G"/><use transform="matrix(0.06172839506172837,0,0,0.06172839506172837,80.12345679012343,0)" xlink:href="#t"/></g><g id="h"><use transform="matrix(0.06172839506172837,0,0,0.06172839506172837,0,0)" xlink:href="#D"/><use transform="matrix(0.06172839506172837,0,0,0.06172839506172837,13.148148148148143,0)" xlink:href="#B"/><use transform="matrix(0.06172839506172837,0,0,0.06172839506172837,27.962962962962955,0)" xlink:href="#A"/><use transform="matrix(0.06172839506172837,0,0,0.06172839506172837,43.950617283950606,0)" xlink:href="#G"/><use transform="matrix(0.06172839506172837,0,0,0.06172839506172837,54.62962962962962,0)" xlink:href="#w"/></g><g id="i"><use transform="matrix(0.06172839506172839,0,0,0.06172839506172839,0,0)" xlink:href="#t"/><use transform="matrix(0.06172839506172839,0,0,0.06172839506172839,14.814814814814813,0)" xlink:href="#y"/><use transform="matrix(0.06172839506172839,0,0,0.06172839506172839,30.80246913580247,0)" xlink:href="#D"/></g><path fill="#333" d="M197 0v-115H63V0H30v-248h33v105h134v-105h34V0h-34" id="H"/><g id="j"><use transform="matrix(0.06172839506172837,0,0,0.06172839506172837,0,0)" xlink:href="#z"/><use transform="matrix(0.06172839506172837,0,0,0.06172839506172837,17.283950617283942,0)" xlink:href="#v"/><use transform="matrix(0.06172839506172837,0,0,0.06172839506172837,33.271604938271594,0)" xlink:href="#u"/><use transform="matrix(0.06172839506172837,0,0,0.06172839506172837,49.25925925925924,0)" xlink:href="#H"/></g><path d="M185-189c-5-48-123-54-124 2 14 75 158 14 163 119 3 78-121 87-175 55-17-10-28-26-33-46l33-7c5 56 141 63 141-1 0-78-155-14-162-118-5-82 145-84 179-34 5 7 8 16 11 25" id="I"/><path d="M30 0v-248h187v28H63v79h144v27H63v87h162V0H30" id="J"/><path d="M233-177c-1 41-23 64-60 70L243 0h-38l-65-103H63V0H30v-248c88 3 205-21 203 71zM63-129c60-2 137 13 137-47 0-61-80-42-137-45v92" id="K"/><path d="M137 0h-34L2-248h35l83 218 83-218h36" id="L"/><g id="k"><use transform="matrix(0.06172839506172839,0,0,0.06172839506172839,0,0)" xlink:href="#I"/><use transform="matrix(0.06172839506172839,0,0,0.06172839506172839,14.814814814814813,0)" xlink:href="#J"/><use transform="matrix(0.06172839506172839,0,0,0.06172839506172839,29.629629629629626,0)" xlink:href="#K"/><use transform="matrix(0.06172839506172839,0,0,0.06172839506172839,45.18518518518518,0)" xlink:href="#L"/><use transform="matrix(0.06172839506172839,0,0,0.06172839506172839,60,0)" xlink:href="#J"/><use transform="matrix(0.06172839506172839,0,0,0.06172839506172839,74.81481481481481,0)" xlink:href="#K"/></g><path d="M160-131c35 5 61 23 61 61C221 17 115-2 30 0v-248c76 3 177-17 177 60 0 33-19 50-47 57zm-97-11c50-1 110 9 110-42 0-47-63-36-110-37v79zm0 115c55-2 124 14 124-45 0-56-70-42-124-44v89" id="M"/><path d="M33 0v-248h34V0H33" id="N"/><path d="M127-220V0H93v-220H8v-28h204v28h-85" id="O"/><g id="l"><use transform="matrix(0.06172839506172839,0,0,0.06172839506172839,0,0)" xlink:href="#M"/><use transform="matrix(0.06172839506172839,0,0,0.06172839506172839,14.814814814814813,0)" xlink:href="#N"/><use transform="matrix(0.06172839506172839,0,0,0.06172839506172839,20.98765432098765,0)" xlink:href="#O"/><use transform="matrix(0.06172839506172839,0,0,0.06172839506172839,34.50617283950617,0)" xlink:href="#I"/></g><path fill="#333" d="M100-194c63 0 86 42 84 106H49c0 40 14 67 53 68 26 1 43-12 49-29l28 8c-11 28-37 45-77 45C44 4 14-33 15-96c1-61 26-98 85-98zm52 81c6-60-76-77-97-28-3 7-6 17-6 28h103" id="P"/><path fill="#333" d="M141-36C126-15 110 5 73 4 37 3 15-17 15-53c-1-64 63-63 125-63 3-35-9-54-41-54-24 1-41 7-42 31l-33-3c5-37 33-52 76-52 45 0 72 20 72 64v82c-1 20 7 32 28 27v20c-31 9-61-2-59-35zM48-53c0 20 12 33 32 33 41-3 63-29 60-74-43 2-92-5-92 41" id="Q"/><path fill="#333" d="M85-194c31 0 48 13 60 33l-1-100h32l1 261h-30c-2-10 0-23-3-31C134-8 116 4 85 4 32 4 16-35 15-94c0-66 23-100 70-100zm9 24c-40 0-46 34-46 75 0 40 6 74 45 74 42 0 51-32 51-76 0-42-9-74-50-73" id="R"/><path fill="#333" d="M117-194c89-4 53 116 60 194h-32v-121c0-31-8-49-39-48C34-167 62-67 57 0H25l-1-190h30c1 10-1 24 2 32 11-22 29-35 61-36" id="S"/><path fill="#333" d="M24 0v-261h32V0H24" id="T"/><path fill="#333" d="M179-190L93 31C79 59 56 82 12 73V49c39 6 53-20 64-50L1-190h34L92-34l54-156h33" id="U"/><g id="m"><use transform="matrix(0.049382716049382706,0,0,0.049382716049382706,0,0)" xlink:href="#v"/><use transform="matrix(0.049382716049382706,0,0,0.049382716049382706,12.790123456790122,0)" xlink:href="#P"/><use transform="matrix(0.049382716049382706,0,0,0.049382716049382706,22.666666666666664,0)" xlink:href="#Q"/><use transform="matrix(0.049382716049382706,0,0,0.049382716049382706,32.5432098765432,0)" xlink:href="#R"/><use transform="matrix(0.049382716049382706,0,0,0.049382716049382706,42.419753086419746,0)" xlink:href="#z"/><use transform="matrix(0.049382716049382706,0,0,0.049382716049382706,56.246913580246904,0)" xlink:href="#S"/><use transform="matrix(0.049382716049382706,0,0,0.049382716049382706,66.12345679012344,0)" xlink:href="#T"/><use transform="matrix(0.049382716049382706,0,0,0.049382716049382706,70.02469135802467,0)" xlink:href="#U"/></g><path fill="#333" d="M210-169c-67 3-38 105-44 169h-31v-121c0-29-5-50-35-48C34-165 62-65 56 0H25l-1-190h30c1 10-1 24 2 32 10-44 99-50 107 0 11-21 27-35 58-36 85-2 47 119 55 194h-31v-121c0-29-5-49-35-48" id="V"/><path fill="#333" d="M115-194c55 1 70 41 70 98S169 2 115 4C84 4 66-9 55-30l1 105H24l-1-265h31l2 30c10-21 28-34 59-34zm-8 174c40 0 45-34 45-75s-6-73-45-74c-42 0-51 32-51 76 0 43 10 73 51 73" id="W"/><g id="n"><use transform="matrix(0.049382716049382706,0,0,0.049382716049382706,0,0)" xlink:href="#w"/><use transform="matrix(0.049382716049382706,0,0,0.049382716049382706,8.839506172839505,0)" xlink:href="#P"/><use transform="matrix(0.049382716049382706,0,0,0.049382716049382706,18.716049382716044,0)" xlink:href="#V"/><use transform="matrix(0.049382716049382706,0,0,0.049382716049382706,33.481481481481474,0)" xlink:href="#W"/></g><path fill="#333" d="M0 4l72-265h28L28 4H0" id="X"/><path fill="#333" d="M266 0h-40l-56-210L115 0H75L2-248h35L96-30l15-64 43-154h32l59 218 59-218h35" id="Y"/><path fill="#333" d="M114-163C36-179 61-72 57 0H25l-1-190h30c1 12-1 29 2 39 6-27 23-49 58-41v29" id="Z"/><path fill="#333" d="M24-231v-30h32v30H24zM24 0v-190h32V0H24" id="aa"/><path fill="#333" d="M59-47c-2 24 18 29 38 22v24C64 9 27 4 27-40v-127H5v-23h24l9-43h21v43h35v23H59v120" id="ab"/><g id="o"><use transform="matrix(0.049382716049382706,0,0,0.049382716049382706,0,0)" xlink:href="#v"/><use transform="matrix(0.049382716049382706,0,0,0.049382716049382706,12.790123456790122,0)" xlink:href="#P"/><use transform="matrix(0.049382716049382706,0,0,0.049382716049382706,22.666666666666664,0)" xlink:href="#Q"/><use transform="matrix(0.049382716049382706,0,0,0.049382716049382706,32.5432098765432,0)" xlink:href="#R"/><use transform="matrix(0.049382716049382706,0,0,0.049382716049382706,42.419753086419746,0)" xlink:href="#X"/><use transform="matrix(0.049382716049382706,0,0,0.049382716049382706,47.35802469135802,0)" xlink:href="#Y"/><use transform="matrix(0.049382716049382706,0,0,0.049382716049382706,63.753086419753075,0)" xlink:href="#Z"/><use transform="matrix(0.049382716049382706,0,0,0.049382716049382706,69.62962962962962,0)" xlink:href="#aa"/><use transform="matrix(0.049382716049382706,0,0,0.049382716049382706,73.53086419753085,0)" xlink:href="#ab"/><use transform="matrix(0.049382716049382706,0,0,0.049382716049382706,78.46913580246911,0)" xlink:href="#P"/></g><path fill="#333" d="M141 0L90-78 38 0H4l68-98-65-92h35l48 74 47-74h35l-64 92 68 98h-35" id="ac"/><g id="p"><use transform="matrix(0.049382716049382706,0,0,0.049382716049382706,0,0)" xlink:href="#t"/><use transform="matrix(0.049382716049382706,0,0,0.049382716049382706,11.85185185185185,0)" xlink:href="#ac"/><use transform="matrix(0.049382716049382706,0,0,0.049382716049382706,20.740740740740737,0)" xlink:href="#ab"/><use transform="matrix(0.049382716049382706,0,0,0.049382716049382706,25.679012345679006,0)" xlink:href="#P"/><use transform="matrix(0.049382716049382706,0,0,0.049382716049382706,35.55555555555554,0)" xlink:href="#Z"/><use transform="matrix(0.049382716049382706,0,0,0.049382716049382706,41.43209876543209,0)" xlink:href="#S"/><use transform="matrix(0.049382716049382706,0,0,0.049382716049382706,51.30864197530863,0)" xlink:href="#Q"/><use transform="matrix(0.049382716049382706,0,0,0.049382716049382706,61.185185185185176,0)" xlink:href="#T"/></g><g id="q"><use transform="matrix(0.06172839506172837,0,0,0.06172839506172837,0,0)" xlink:href="#E"/><use transform="matrix(0.06172839506172837,0,0,0.06172839506172837,14.81481481481481,0)" xlink:href="#t"/><use transform="matrix(0.06172839506172837,0,0,0.06172839506172837,29.62962962962962,0)" xlink:href="#v"/><use transform="matrix(0.06172839506172837,0,0,0.06172839506172837,45.617283950617264,0)" xlink:href="#s"/><use transform="matrix(0.06172839506172837,0,0,0.06172839506172837,60.43209876543207,0)" xlink:href="#x"/><use transform="matrix(0.06172839506172837,0,0,0.06172839506172837,66.60493827160491,0)" xlink:href="#s"/><use transform="matrix(0.06172839506172837,0,0,0.06172839506172837,81.41975308641972,0)" xlink:href="#w"/><use transform="matrix(0.06172839506172837,0,0,0.06172839506172837,94.93827160493824,0)" xlink:href="#t"/><use transform="matrix(0.06172839506172837,0,0,0.06172839506172837,109.75308641975305,0)" xlink:href="#y"/><use transform="matrix(0.06172839506172837,0,0,0.06172839506172837,125.74074074074069,0)" xlink:href="#w"/></g><path fill="#333" d="M240 0l2-218c-23 76-54 145-80 218h-23L58-218 59 0H30v-248h44l77 211c21-75 51-140 76-211h43V0h-30" id="ad"/><g id="r"><use transform="matrix(0.06172839506172837,0,0,0.06172839506172837,0,0)" xlink:href="#D"/><use transform="matrix(0.06172839506172837,0,0,0.06172839506172837,14.81481481481481,0)" xlink:href="#z"/><use transform="matrix(0.06172839506172837,0,0,0.06172839506172837,32.09876543209875,0)" xlink:href="#G"/><use transform="matrix(0.06172839506172837,0,0,0.06172839506172837,44.44444444444443,0)" xlink:href="#A"/><use transform="matrix(0.06172839506172837,0,0,0.06172839506172837,60.43209876543207,0)" xlink:href="#ad"/><use transform="matrix(0.06172839506172837,0,0,0.06172839506172837,78.88888888888886,0)" xlink:href="#t"/></g></defs></g></svg>