<svg xmlns="http://www.w3.org/2000/svg" xmlns:xlink="http://www.w3.org/1999/xlink" xmlns:lucid="lucid" width="1720" height="940"><g transform="translate(-20 -120)" lucid:page-tab-id="0_0"><path d="M0 0h1760v1360H0z" fill="#fff"/><path d="M204 166h96v94H40V140h156zm-164 0h164" stroke="#000" stroke-width="2" fill="#ffbbb1"/><use xlink:href="#a" transform="matrix(1,0,0,1,48,140) translate(0 19.91189236111111)"/><use xlink:href="#b" transform="matrix(1,0,0,1,52,174) translate(69.39952256944446 34.06293402777778)"/><use xlink:href="#c" transform="matrix(1,0,0,1,52,174) translate(-1.9756401909722143 57.76085069444444)"/><path d="M617 166h163v94H340V140h264zm-277 0h277" stroke="#000" stroke-width="2" fill="#ffeca9"/><use xlink:href="#d" transform="matrix(1,0,0,1,348,140) translate(0 19.911892361111107)"/><use xlink:href="#e" transform="matrix(1,0,0,1,352,174) translate(0 22.213975694444443)"/><use xlink:href="#f" transform="matrix(1,0,0,1,352,174) translate(0 45.91189236111111)"/><use xlink:href="#g" transform="matrix(1,0,0,1,352,174) translate(0 69.60980902777777)"/><path d="M739 666h141v94H500V640h228zm-239 0h239" stroke="#000" stroke-width="2" fill="#ffeca9"/><use xlink:href="#h" transform="matrix(1,0,0,1,508,640) translate(0 19.911892361111107)"/><use xlink:href="#i" transform="matrix(1,0,0,1,512,674) translate(0 34.06293402777778)"/><use xlink:href="#j" transform="matrix(1,0,0,1,512,674) translate(18 34.06293402777778)"/><use xlink:href="#k" transform="matrix(1,0,0,1,512,674) translate(0 57.76085069444444)"/><use xlink:href="#l" transform="matrix(1,0,0,1,512,674) translate(18 57.76085069444444)"/><use xlink:href="#m" transform="matrix(1,0,0,1,512,674) translate(228.42762586805554 57.76085069444444)"/><path d="M171 969h1169.5v2H169V405.08h2m0-52.6h-2V262h2"/><path d="M171 262.03h-2V261h2M1355.76 970l-14.26 4.64v-9.28z"/><path d="M1359 970l-18.5 6v-12m2 9.26l10.03-3.26-10.03-3.26"/><use xlink:href="#n" transform="matrix(1,0,0,1,74.14534505208336,352.4762874347955) translate(61.49707899305554 20.822482638888886)"/><use xlink:href="#o" transform="matrix(1,0,0,1,74.14534505208336,352.4762874347955) translate(112.18338541666662 20.822482638888886)"/><use xlink:href="#p" transform="matrix(1,0,0,1,74.14534505208336,352.4762874347955) translate(0.0049999999999954525 47.124565972222214)"/><use xlink:href="#q" transform="matrix(1,0,0,1,74.14534505208336,352.4762874347955) translate(56.061315104166646 47.124565972222214)"/><use xlink:href="#r" transform="matrix(1,0,0,1,74.14534505208336,352.4762874347955) translate(102.7584722222222 47.124565972222214)"/><use xlink:href="#s" transform="matrix(1,0,0,1,74.14534505208336,352.4762874347955) translate(150.4638758680555 47.124565972222214)"/><path d="M1587 926h133v114h-360V900h216zm-227 0h227" stroke="#000" stroke-width="2" fill="#c7e8ac"/><use xlink:href="#t" transform="matrix(1,0,0,1,1368,900) translate(0 19.91189236111111)"/><use xlink:href="#i" transform="matrix(1,0,0,1,1372,934) translate(0 44.06293402777778)"/><use xlink:href="#u" transform="matrix(1,0,0,1,1372,934) translate(18 44.06293402777778)"/><use xlink:href="#k" transform="matrix(1,0,0,1,1372,934) translate(0 67.76085069444444)"/><use xlink:href="#v" transform="matrix(1,0,0,1,1372,934) translate(18 67.76085069444444)"/><path d="M1000 642h200v118h-200z" stroke="#000" fill="#fcc438"/><path d="M1157 689.2h23v22.18h-23zM1038.4 701l15.4-16.17 17 16.17-17 14.75zM1041.6 667.13c0 5.9-4.6 11.8-10.8 11.8-7.8 0-12.4-5.9-12.4-11.8s4.6-10.38 12.4-10.38c6.2 0 10.8 4.48 10.8 10.38zM1033.8 723.18l12.4 22.07H1023z" stroke="#000" fill="#fff"/><path d="M1081 701.35h64.6" stroke="#000" fill="#fcc438"/><path d="M1133.4 695.45l12.2 5.9-12.2 4.37z" stroke="#000"/><use xlink:href="#w" transform="matrix(1,0,0,1,1000,765) translate(60.599999999999994 23.6)"/><path d="M382.2 699h98.3v2H380.2V492.97h2m0-52.6h-2V262h2"/><path d="M382.2 262.03h-2V261h2M495.76 700l-14.26 4.64v-9.28z"/><path d="M499 700l-18.5 6v-12m2 9.26l10.03-3.26-10.03-3.26"/><use xlink:href="#n" transform="matrix(1,0,0,1,295.1883167479732,440.36458333333337) translate(51.655716145833324 20.822482638888886)"/><use xlink:href="#x" transform="matrix(1,0,0,1,295.1883167479732,440.36458333333337) translate(102.34202256944442 20.822482638888886)"/><use xlink:href="#p" transform="matrix(1,0,0,1,295.1883167479732,440.36458333333337) translate(0.0049999999999954525 47.124565972222214)"/><use xlink:href="#y" transform="matrix(1,0,0,1,295.1883167479732,440.36458333333337) translate(56.061315104166646 47.124565972222214)"/><use xlink:href="#z" transform="matrix(1,0,0,1,295.1883167479732,440.36458333333337) translate(98.86795572916664 47.124565972222214)"/><path d="M1454 486h266v94h-720V460h432zm-454 0h454" stroke="#000" stroke-width="2" fill="#c1e4f7"/><use xlink:href="#A" transform="matrix(1,0,0,1,1008,460) translate(0 19.911892361111107)"/><use xlink:href="#B" transform="matrix(1,0,0,1,1008,460) translate(348.5272352430554 19.911892361111107)"/><use xlink:href="#C" transform="matrix(1,0,0,1,1008,460) translate(359.11230468749983 19.911892361111107)"/><use xlink:href="#D" transform="matrix(1,0,0,1,1012,494) translate(288.0294596354167 45.91189236111111)"/><use xlink:href="#E" transform="matrix(1,0,0,1,1012,494) translate(351.42138671875 45.91189236111111)"/><path d="M790 346h170v134H500V320h276zm-290 0h290" stroke="#000" stroke-width="2" fill="#ffeca9"/><use xlink:href="#F" transform="matrix(1,0,0,1,508,320) translate(0 19.911892361111107)"/><use xlink:href="#G" transform="matrix(1,0,0,1,512,354) translate(0 18.760850694444443)"/><use xlink:href="#H" transform="matrix(1,0,0,1,512,354) translate(0 42.45876736111111)"/><use xlink:href="#I" transform="matrix(1,0,0,1,512,354) translate(0 66.15668402777777)"/><use xlink:href="#J" transform="matrix(1,0,0,1,512,354) translate(0 89.85460069444444)"/><use xlink:href="#g" transform="matrix(1,0,0,1,512,354) translate(0 113.5525173611111)"/><path d="M673.6 620.5h-2v-34.2h2m0-52.6h-2V482h2"/><path d="M673.6 482.03h-2V481h2M672.6 635.76l-4.64-14.26h9.27z"/><path d="M672.6 639l-6.02-18.5h12.02m-9.27 2l3.26 10.03 3.25-10.03"/><g><use xlink:href="#n" transform="matrix(1,0,0,1,586.5787742885376,533.6979166666666) translate(51.655716145833324 20.822482638888886)"/><use xlink:href="#K" transform="matrix(1,0,0,1,586.5787742885376,533.6979166666666) translate(102.34202256944442 20.822482638888886)"/><use xlink:href="#p" transform="matrix(1,0,0,1,586.5787742885376,533.6979166666666) translate(0.0049999999999954525 47.124565972222214)"/><use xlink:href="#y" transform="matrix(1,0,0,1,586.5787742885376,533.6979166666666) translate(56.061315104166646 47.124565972222214)"/><use xlink:href="#z" transform="matrix(1,0,0,1,586.5787742885376,533.6979166666666) translate(98.86795572916664 47.124565972222214)"/></g><path d="M1507.3 599.5V898" stroke="#000" stroke-width="2" fill="none"/><path d="M1507.3 584.24l4.63 14.26h-9.27z" stroke="#000" stroke-width="2"/><path d="M1508.3 899h-2v-1.03h2M1045.05 969h-2v-42.46h2m0-101.35h-2v-63.7h2"/><path d="M1045.05 761.53h-2v-1.03h2M1045.05 970h-2v-1.03h2"/><g><use xlink:href="#n" transform="matrix(1,0,0,1,836.1376825972199,825.1850352890935) translate(173.5549131944444 20.822482638888886)"/><use xlink:href="#L" transform="matrix(1,0,0,1,836.1376825972199,825.1850352890935) translate(224.24121961805548 20.822482638888886)"/><use xlink:href="#p" transform="matrix(1,0,0,1,836.1376825972199,825.1850352890935) translate(0.0049999999999954525 47.124565972222214)"/><use xlink:href="#M" transform="matrix(1,0,0,1,836.1376825972199,825.1850352890935) translate(56.061315104166646 47.124565972222214)"/><use xlink:href="#y" transform="matrix(1,0,0,1,836.1376825972199,825.1850352890935) translate(281.0646788194444 47.124565972222214)"/><use xlink:href="#N" transform="matrix(1,0,0,1,836.1376825972199,825.1850352890935) translate(323.8713194444444 47.124565972222214)"/><use xlink:href="#O" transform="matrix(1,0,0,1,836.1376825972199,825.1850352890935) translate(402.59126302083325 47.124565972222214)"/><use xlink:href="#P" transform="matrix(1,0,0,1,836.1376825972199,825.1850352890935) translate(97.88162760416668 73.42664930555554)"/><use xlink:href="#Q" transform="matrix(1,0,0,1,836.1376825972199,825.1850352890935) translate(297.5582769097221 73.42664930555554)"/><use xlink:href="#R" transform="matrix(1,0,0,1,836.1376825972199,825.1850352890935) translate(32.822328559027795 96.85742187499999)"/></g><path d="M882 700h99" stroke="#000" stroke-width="2" fill="none"/><path d="M882.03 701H881v-2h1.03"/><path d="M996.26 700L982 704.64v-9.28z" stroke="#000" stroke-width="2"/><path d="M1580 236h140v40h-140z" stroke="#5e5e5e" stroke-width="3" fill="#ffbbb1"/><g><use xlink:href="#S" transform="matrix(1,0,0,1,1585,241) translate(45.33203125 22.304687499999996)"/></g><path d="M1580 188h140v40h-140z" stroke="#5e5e5e" stroke-width="3" fill="#ffeca9"/><g><use xlink:href="#T" transform="matrix(1,0,0,1,1585,193) translate(10.493164062500014 22.304687499999996)"/><use xlink:href="#U" transform="matrix(1,0,0,1,1585,193) translate(50.72753906250001 22.304687499999996)"/><use xlink:href="#V" transform="matrix(1,0,0,1,1585,193) translate(73.8525390625 22.304687499999996)"/></g><path d="M1580 140h140v40h-140z" stroke="#5e5e5e" stroke-width="3" fill="#c7e8ac"/><g><use xlink:href="#W" transform="matrix(1,0,0,1,1585,145) translate(19.321289062500007 22.304687499999996)"/></g><path d="M1580 284h140v40h-140z" stroke="#5e5e5e" stroke-width="3" fill="#b2d6ef"/><g><use xlink:href="#X" transform="matrix(1,0,0,1,1585,289) translate(29.414062500000007 22.304687499999996)"/></g><defs><path d="M177 125H18l608-1581h158" id="Y"/><path d="M584 20C278 26 81-227 91-551c10-320 175-545 491-551 308-5 503 247 494 573-9 322-175 543-492 549zm-2-970c-208 0-305 185-305 421 0 216 106 398 307 398 211 0 307-186 307-420 0-214-109-399-309-399" id="Z"/><path d="M632-1102c291 0 422 251 422 573 0 297-141 548-419 549-131 0-235-42-310-125v521H140v-1498h169l9 120c75-93 180-140 314-140zm-53 971c207 0 290-180 290-419 0-218-92-395-292-395-112 0-196 50-252 149v517c55 99 140 148 254 148" id="aa"/><path d="M456 20C285 20 205-92 206-268v-671H9v-143h197v-262h185v262h202v143H391v671c-9 125 92 149 207 118V0c-49 13-96 20-142 20" id="ab"/><path d="M538-131c121 0 232-49 232-156 0-50-20-88-56-117-73-60-334-92-420-143-92-55-162-110-162-238 0-190 192-317 400-317 223 0 414 129 413 338H759c0-108-110-186-227-186-119 0-215 53-215 159 0 45 18 78 53 101 76 52 331 90 416 139 98 57 169 115 169 251C955-92 760 20 538 20c-176 0-314-68-386-174-38-55-57-115-57-179h185c6 129 116 202 258 202" id="ac"/><path d="M599-131c141 0 220-65 285-146l113 88C906-50 770 20 589 20 281 21 93-214 93-545c0-223 93-397 233-485 74-48 154-72 240-72 300 2 449 218 445 537v77H278c0 197 129 357 321 357zm227-509c-3-180-88-310-260-310-170 0-264 140-282 310h542" id="ad"/><path d="M663-916c-163-27-288 18-338 148V0H140v-1082h180l3 125c61-97 147-145 258-145 36 0 63 5 82 14v172" id="ae"/><path d="M497-251l268-831h189L566 0H425L33-1082h189" id="af"/><g id="a"><use transform="matrix(0.009874131944444444,0,0,0.009874131944444444,0,0)" xlink:href="#Y"/><use transform="matrix(0.009874131944444444,0,0,0.009874131944444444,8.33376736111111,0)" xlink:href="#Z"/><use transform="matrix(0.009874131944444444,0,0,0.009874131944444444,19.86675347222222,0)" xlink:href="#aa"/><use transform="matrix(0.009874131944444444,0,0,0.009874131944444444,31.21213107638889,0)" xlink:href="#ab"/><use transform="matrix(0.009874131944444444,0,0,0.009874131944444444,37.81792534722222,0)" xlink:href="#Y"/><use transform="matrix(0.009874131944444444,0,0,0.009874131944444444,46.15169270833333,0)" xlink:href="#ac"/><use transform="matrix(0.009874131944444444,0,0,0.009874131944444444,56.57877604166666,0)" xlink:href="#ad"/><use transform="matrix(0.009874131944444444,0,0,0.009874131944444444,67.29220920138889,0)" xlink:href="#ae"/><use transform="matrix(0.009874131944444444,0,0,0.009874131944444444,74.31271701388889,0)" xlink:href="#af"/><use transform="matrix(0.009874131944444444,0,0,0.009874131944444444,83.9794921875,0)" xlink:href="#ad"/><use transform="matrix(0.009874131944444444,0,0,0.009874131944444444,94.69292534722224,0)" xlink:href="#ae"/></g><path d="M665-137c214 0 337-121 336-332v-987h193v990c-3 300-218 486-529 486-309 0-526-181-525-484v-992h190v986c-1 210 123 333 335 333" id="ag"/><path d="M589-945c-131 0-219 81-264 174V0H140v-1082h175l6 136c83-104 191-156 324-156 229 0 346 129 346 387V0H806v-716c-2-153-65-229-217-229" id="ah"/><path d="M491 20c-241-1-355-148-355-398v-704h185v699c0 164 67 246 200 246 141 0 235-53 282-158v-787h185V0H812l-4-107C736-22 630 20 491 20" id="ai"/><path d="M277-555c0 244 77 420 297 424 127 2 249-93 255-210h175C980-127 805 20 574 20 258 20 81-222 92-562c11-319 164-533 481-540 237-5 426 165 431 392H829c-7-133-115-242-256-240-209 4-296 166-296 395" id="aj"/><path d="M589-945c-131 0-219 81-264 174V0H140v-1536h185v585c82-101 189-151 320-151 229 0 346 129 346 387V0H806v-716c-2-153-65-229-217-229" id="ak"/><path d="M520 20C244 20 95-247 95-550c0-298 151-550 427-552 127 0 227 43 301 130v-564h185V0H838l-9-116C755-25 652 20 520 20zm48-965c-210 0-288 177-288 416 0 218 87 392 286 392 117 0 203-53 257-158v-497c-55-102-140-153-255-153" id="al"/><g id="b"><use transform="matrix(0.009874131944444444,0,0,0.009874131944444444,0,0)" xlink:href="#ag"/><use transform="matrix(0.009874131944444444,0,0,0.009874131944444444,13.112847222222221,0)" xlink:href="#ah"/><use transform="matrix(0.009874131944444444,0,0,0.009874131944444444,24.270616319444443,0)" xlink:href="#ab"/><use transform="matrix(0.009874131944444444,0,0,0.009874131944444444,30.67892795138889,0)" xlink:href="#Z"/><use transform="matrix(0.009874131944444444,0,0,0.009874131944444444,42.2119140625,0)" xlink:href="#ai"/><use transform="matrix(0.009874131944444444,0,0,0.009874131944444444,53.35980902777778,0)" xlink:href="#aj"/><use transform="matrix(0.009874131944444444,0,0,0.009874131944444444,63.94487847222222,0)" xlink:href="#ak"/><use transform="matrix(0.009874131944444444,0,0,0.009874131944444444,75.08289930555556,0)" xlink:href="#ad"/><use transform="matrix(0.009874131944444444,0,0,0.009874131944444444,85.79633246527777,0)" xlink:href="#al"/></g><path d="M341 0H156v-1082h185V0zm-91-1264c-68 0-108-42-109-105 0-62 41-107 109-107s110 44 110 107-42 105-110 105" id="am"/><path d="M521 20C240 20 96-239 96-550c0-303 147-552 427-552 132 0 235 47 309 140l9-120h169V-26c4 277-183 454-459 452-165-1-334-81-400-187l96-111c79 98 176 147 291 147 180 1 288-109 286-290v-93C750-23 649 20 521 20zm48-965c-209 0-287 178-287 416 0 217 86 392 285 392 117 0 202-53 257-159v-494c-57-103-142-155-255-155" id="an"/><path d="M704-1390c-164-38-297 28-288 194v114h231v143H416V0H231v-939H60v-143h171v-111c-12-274 208-416 483-347" id="ao"/><path d="M561-1102c238-4 403 126 403 351v498c0 99 13 178 38 237V0H808c-11-21-19-59-26-114C696-25 593 20 474 20c-199 0-368-130-365-320 4-251 214-359 490-356h180v-85c-1-135-86-212-229-212-115 0-232 67-233 171H131c20-205 206-316 430-320zM294-326c0 117 90 185 207 185 122 0 239-75 278-162v-222H634c-227 0-340 66-340 199" id="ap"/><path d="M920 151H4V0h916v151" id="aq"/><path d="M264-644l626 253v196L72-574v-146l818-378v196" id="ar"/><path d="M795-650L134-909v-190l854 378v146L134-196v-192" id="as"/><path d="M258 11c-71 0-114-43-114-108 0-67 42-112 114-112s116 45 116 112c-1 65-45 108-116 108" id="at"/><path d="M314-151h633V0H88v-136l597-793H97v-153h820v131" id="au"/><g id="c"><use transform="matrix(0.009874131944444444,0,0,0.009874131944444444,0,0)" xlink:href="#aa"/><use transform="matrix(0.009874131944444444,0,0,0.009874131944444444,11.345377604166666,0)" xlink:href="#am"/><use transform="matrix(0.009874131944444444,0,0,0.009874131944444444,16.252821180555554,0)" xlink:href="#ah"/><use transform="matrix(0.009874131944444444,0,0,0.009874131944444444,27.410590277777775,0)" xlink:href="#an"/><use transform="matrix(0.009874131944444444,0,0,0.009874131944444444,38.75596788194444,0)" xlink:href="#ao"/><use transform="matrix(0.009874131944444444,0,0,0.009874131944444444,45.53949652777778,0)" xlink:href="#ad"/><use transform="matrix(0.009874131944444444,0,0,0.009874131944444444,56.2529296875,0)" xlink:href="#al"/><use transform="matrix(0.009874131944444444,0,0,0.009874131944444444,67.65755208333333,0)" xlink:href="#ad"/><use transform="matrix(0.009874131944444444,0,0,0.009874131944444444,78.37098524305554,0)" xlink:href="#ae"/><use transform="matrix(0.009874131944444444,0,0,0.009874131944444444,84.81879340277777,0)" xlink:href="#ap"/><use transform="matrix(0.009874131944444444,0,0,0.009874131944444444,95.81857638888889,0)" xlink:href="#ab"/><use transform="matrix(0.009874131944444444,0,0,0.009874131944444444,102.42437065972221,0)" xlink:href="#ad"/><use transform="matrix(0.009874131944444444,0,0,0.009874131944444444,113.13780381944443,0)" xlink:href="#aq"/><use transform="matrix(0.009874131944444444,0,0,0.009874131944444444,122.2615017361111,0)" xlink:href="#ar"/><use transform="matrix(0.009874131944444444,0,0,0.009874131944444444,132.54047309027777,0)" xlink:href="#af"/><use transform="matrix(0.009874131944444444,0,0,0.009874131944444444,142.20724826388889,0)" xlink:href="#ad"/><use transform="matrix(0.009874131944444444,0,0,0.009874131944444444,152.92068142361111,0)" xlink:href="#ae"/><use transform="matrix(0.009874131944444444,0,0,0.009874131944444444,159.76345486111111,0)" xlink:href="#ac"/><use transform="matrix(0.009874131944444444,0,0,0.009874131944444444,170.19053819444449,0)" xlink:href="#am"/><use transform="matrix(0.009874131944444444,0,0,0.009874131944444444,175.09798177083331,0)" xlink:href="#Z"/><use transform="matrix(0.009874131944444444,0,0,0.009874131944444444,186.63096788194449,0)" xlink:href="#ah"/><use transform="matrix(0.009874131944444444,0,0,0.009874131944444444,197.78873697916669,0)" xlink:href="#as"/><use transform="matrix(0.009874131944444444,0,0,0.009874131944444444,208.3540581597222,0)" xlink:href="#at"/><use transform="matrix(0.009874131944444444,0,0,0.009874131944444444,213.67621527777777,0)" xlink:href="#au"/><use transform="matrix(0.009874131944444444,0,0,0.009874131944444444,223.69845920138889,0)" xlink:href="#am"/><use transform="matrix(0.009874131944444444,0,0,0.009874131944444444,228.60590277777777,0)" xlink:href="#aa"/></g><g id="d"><use transform="matrix(0.009874131944444439,0,0,0.009874131944444439,0,0)" xlink:href="#Y"/><use transform="matrix(0.009874131944444439,0,0,0.009874131944444439,8.333767361111107,0)" xlink:href="#Z"/><use transform="matrix(0.009874131944444439,0,0,0.009874131944444439,19.866753472222214,0)" xlink:href="#aa"/><use transform="matrix(0.009874131944444439,0,0,0.009874131944444439,31.212131076388875,0)" xlink:href="#ab"/><use transform="matrix(0.009874131944444439,0,0,0.009874131944444439,37.81792534722221,0)" xlink:href="#Y"/><use transform="matrix(0.009874131944444439,0,0,0.009874131944444439,46.151692708333314,0)" xlink:href="#am"/><use transform="matrix(0.009874131944444439,0,0,0.009874131944444439,51.0591362847222,0)" xlink:href="#ah"/></g><path d="M341 0H156v-1536h185V0" id="av"/><g id="e"><use transform="matrix(0.009874131944444444,0,0,0.009874131944444444,0,0)" xlink:href="#am"/><use transform="matrix(0.009874131944444444,0,0,0.009874131944444444,4.907443576388888,0)" xlink:href="#ah"/><use transform="matrix(0.009874131944444444,0,0,0.009874131944444444,16.06521267361111,0)" xlink:href="#ac"/><use transform="matrix(0.009874131944444444,0,0,0.009874131944444444,26.492296006944443,0)" xlink:href="#ab"/><use transform="matrix(0.009874131944444444,0,0,0.009874131944444444,33.09809027777778,0)" xlink:href="#ap"/><use transform="matrix(0.009874131944444444,0,0,0.009874131944444444,44.097873263888886,0)" xlink:href="#ah"/><use transform="matrix(0.009874131944444444,0,0,0.009874131944444444,55.25564236111111,0)" xlink:href="#aj"/><use transform="matrix(0.009874131944444444,0,0,0.009874131944444444,65.84071180555556,0)" xlink:href="#ad"/><use transform="matrix(0.009874131944444444,0,0,0.009874131944444444,76.55414496527777,0)" xlink:href="#Y"/><use transform="matrix(0.009874131944444444,0,0,0.009874131944444444,84.88791232638889,0)" xlink:href="#ac"/><use transform="matrix(0.009874131944444444,0,0,0.009874131944444444,95.31499565972221,0)" xlink:href="#ad"/><use transform="matrix(0.009874131944444444,0,0,0.009874131944444444,106.02842881944443,0)" xlink:href="#ae"/><use transform="matrix(0.009874131944444444,0,0,0.009874131944444444,113.04893663194443,0)" xlink:href="#af"/><use transform="matrix(0.009874131944444444,0,0,0.009874131944444444,122.71571180555556,0)" xlink:href="#ad"/><use transform="matrix(0.009874131944444444,0,0,0.009874131944444444,133.42914496527777,0)" xlink:href="#ae"/><use transform="matrix(0.009874131944444444,0,0,0.009874131944444444,140.27191840277777,0)" xlink:href="#Y"/><use transform="matrix(0.009874131944444444,0,0,0.009874131944444444,148.60568576388889,0)" xlink:href="#al"/><use transform="matrix(0.009874131944444444,0,0,0.009874131944444444,160.01030815972223,0)" xlink:href="#ad"/><use transform="matrix(0.009874131944444444,0,0,0.009874131944444444,170.72374131944449,0)" xlink:href="#ao"/><use transform="matrix(0.009874131944444444,0,0,0.009874131944444444,177.74424913194449,0)" xlink:href="#ap"/><use transform="matrix(0.009874131944444444,0,0,0.009874131944444444,188.74403211805557,0)" xlink:href="#ai"/><use transform="matrix(0.009874131944444444,0,0,0.009874131944444444,199.89192708333331,0)" xlink:href="#av"/><use transform="matrix(0.009874131944444444,0,0,0.009874131944444444,204.7993706597222,0)" xlink:href="#ab"/><use transform="matrix(0.009874131944444444,0,0,0.009874131944444444,211.40516493055557,0)" xlink:href="#Y"/><use transform="matrix(0.009874131944444444,0,0,0.009874131944444444,219.73893229166669,0)" xlink:href="#aj"/><use transform="matrix(0.009874131944444444,0,0,0.009874131944444444,230.32400173611114,0)" xlink:href="#Z"/><use transform="matrix(0.009874131944444444,0,0,0.009874131944444444,241.85698784722226,0)" xlink:href="#ah"/><use transform="matrix(0.009874131944444444,0,0,0.009874131944444444,253.01475694444446,0)" xlink:href="#ao"/><use transform="matrix(0.009874131944444444,0,0,0.009874131944444444,260.03526475694446,0)" xlink:href="#Y"/><use transform="matrix(0.009874131944444444,0,0,0.009874131944444444,268.36903211805554,0)" xlink:href="#aa"/><use transform="matrix(0.009874131944444444,0,0,0.009874131944444444,279.71440972222223,0)" xlink:href="#am"/><use transform="matrix(0.009874131944444444,0,0,0.009874131944444444,284.62185329861114,0)" xlink:href="#ah"/><use transform="matrix(0.009874131944444444,0,0,0.009874131944444444,295.77962239583337,0)" xlink:href="#an"/><use transform="matrix(0.009874131944444444,0,0,0.009874131944444444,307.12500000000006,0)" xlink:href="#ao"/><use transform="matrix(0.009874131944444444,0,0,0.009874131944444444,313.90852864583337,0)" xlink:href="#ad"/><use transform="matrix(0.009874131944444444,0,0,0.009874131944444444,324.6219618055556,0)" xlink:href="#al"/><use transform="matrix(0.009874131944444444,0,0,0.009874131944444444,336.02658420138897,0)" xlink:href="#ad"/><use transform="matrix(0.009874131944444444,0,0,0.009874131944444444,346.74001736111114,0)" xlink:href="#ae"/><use transform="matrix(0.009874131944444444,0,0,0.009874131944444444,353.18782552083337,0)" xlink:href="#ap"/><use transform="matrix(0.009874131944444444,0,0,0.009874131944444444,364.18760850694446,0)" xlink:href="#ab"/><use transform="matrix(0.009874131944444444,0,0,0.009874131944444444,370.79340277777777,0)" xlink:href="#ad"/><use transform="matrix(0.009874131944444444,0,0,0.009874131944444444,381.5068359375,0)" xlink:href="#at"/><use transform="matrix(0.009874131944444444,0,0,0.009874131944444444,386.82899305555554,0)" xlink:href="#av"/><use transform="matrix(0.009874131944444444,0,0,0.009874131944444444,391.73643663194446,0)" xlink:href="#am"/><use transform="matrix(0.009874131944444444,0,0,0.009874131944444444,396.64388020833337,0)" xlink:href="#aj"/></g><path d="M494-271l252-811h198L509 167C425 381 299 474 84 421V271c167 16 242-37 283-173l41-110L22-1082h202" id="aw"/><path d="M330-983l-302-90 46-151 302 112-9-344h153l-10 349 297-110 46 152-307 91 198 271-124 94-186-288-180 281-125-91" id="ax"/><g id="f"><use transform="matrix(0.009874131944444444,0,0,0.009874131944444444,0,0)" xlink:href="#am"/><use transform="matrix(0.009874131944444444,0,0,0.009874131944444444,4.907443576388888,0)" xlink:href="#ah"/><use transform="matrix(0.009874131944444444,0,0,0.009874131944444444,16.06521267361111,0)" xlink:href="#ac"/><use transform="matrix(0.009874131944444444,0,0,0.009874131944444444,26.492296006944443,0)" xlink:href="#ab"/><use transform="matrix(0.009874131944444444,0,0,0.009874131944444444,33.09809027777778,0)" xlink:href="#ap"/><use transform="matrix(0.009874131944444444,0,0,0.009874131944444444,44.097873263888886,0)" xlink:href="#ah"/><use transform="matrix(0.009874131944444444,0,0,0.009874131944444444,55.25564236111111,0)" xlink:href="#aj"/><use transform="matrix(0.009874131944444444,0,0,0.009874131944444444,65.84071180555556,0)" xlink:href="#ad"/><use transform="matrix(0.009874131944444444,0,0,0.009874131944444444,76.55414496527777,0)" xlink:href="#Y"/><use transform="matrix(0.009874131944444444,0,0,0.009874131944444444,84.88791232638889,0)" xlink:href="#ac"/><use transform="matrix(0.009874131944444444,0,0,0.009874131944444444,95.31499565972221,0)" xlink:href="#ad"/><use transform="matrix(0.009874131944444444,0,0,0.009874131944444444,106.02842881944443,0)" xlink:href="#ae"/><use transform="matrix(0.009874131944444444,0,0,0.009874131944444444,113.04893663194443,0)" xlink:href="#af"/><use transform="matrix(0.009874131944444444,0,0,0.009874131944444444,122.71571180555556,0)" xlink:href="#ad"/><use transform="matrix(0.009874131944444444,0,0,0.009874131944444444,133.42914496527777,0)" xlink:href="#ae"/><use transform="matrix(0.009874131944444444,0,0,0.009874131944444444,140.27191840277777,0)" xlink:href="#Y"/><use transform="matrix(0.009874131944444444,0,0,0.009874131944444444,148.60568576388889,0)" xlink:href="#al"/><use transform="matrix(0.009874131944444444,0,0,0.009874131944444444,160.01030815972223,0)" xlink:href="#ad"/><use transform="matrix(0.009874131944444444,0,0,0.009874131944444444,170.72374131944449,0)" xlink:href="#ao"/><use transform="matrix(0.009874131944444444,0,0,0.009874131944444444,177.74424913194449,0)" xlink:href="#ap"/><use transform="matrix(0.009874131944444444,0,0,0.009874131944444444,188.74403211805557,0)" xlink:href="#ai"/><use transform="matrix(0.009874131944444444,0,0,0.009874131944444444,199.89192708333331,0)" xlink:href="#av"/><use transform="matrix(0.009874131944444444,0,0,0.009874131944444444,204.7993706597222,0)" xlink:href="#ab"/><use transform="matrix(0.009874131944444444,0,0,0.009874131944444444,211.40516493055557,0)" xlink:href="#Y"/><use transform="matrix(0.009874131944444444,0,0,0.009874131944444444,219.73893229166669,0)" xlink:href="#al"/><use transform="matrix(0.009874131944444444,0,0,0.009874131944444444,231.14355468750003,0)" xlink:href="#ad"/><use transform="matrix(0.009874131944444444,0,0,0.009874131944444444,241.85698784722226,0)" xlink:href="#aa"/><use transform="matrix(0.009874131944444444,0,0,0.009874131944444444,253.2023654513889,0)" xlink:href="#av"/><use transform="matrix(0.009874131944444444,0,0,0.009874131944444444,258.1098090277778,0)" xlink:href="#Z"/><use transform="matrix(0.009874131944444444,0,0,0.009874131944444444,269.49468315972223,0)" xlink:href="#aw"/><use transform="matrix(0.009874131944444444,0,0,0.009874131944444444,279.0627170138889,0)" xlink:href="#Y"/><use transform="matrix(0.009874131944444444,0,0,0.009874131944444444,287.396484375,0)" xlink:href="#ax"/></g><g id="g"><use transform="matrix(0.009874131944444444,0,0,0.009874131944444444,0,0)" xlink:href="#at"/><use transform="matrix(0.009874131944444444,0,0,0.009874131944444444,5.322157118055555,0)" xlink:href="#at"/><use transform="matrix(0.009874131944444444,0,0,0.009874131944444444,10.64431423611111,0)" xlink:href="#at"/></g><g id="h"><use transform="matrix(0.00987413194444444,0,0,0.00987413194444444,0,0)" xlink:href="#Y"/><use transform="matrix(0.00987413194444444,0,0,0.00987413194444444,8.333767361111107,0)" xlink:href="#Z"/><use transform="matrix(0.00987413194444444,0,0,0.00987413194444444,19.866753472222214,0)" xlink:href="#aa"/><use transform="matrix(0.00987413194444444,0,0,0.00987413194444444,31.212131076388875,0)" xlink:href="#ab"/><use transform="matrix(0.00987413194444444,0,0,0.00987413194444444,37.81792534722221,0)" xlink:href="#Y"/><use transform="matrix(0.00987413194444444,0,0,0.00987413194444444,46.151692708333314,0)" xlink:href="#ac"/><use transform="matrix(0.00987413194444444,0,0,0.00987413194444444,56.57877604166664,0)" xlink:href="#ab"/><use transform="matrix(0.00987413194444444,0,0,0.00987413194444444,63.18457031249998,0)" xlink:href="#ap"/><use transform="matrix(0.00987413194444444,0,0,0.00987413194444444,74.18435329861109,0)" xlink:href="#an"/><use transform="matrix(0.00987413194444444,0,0,0.00987413194444444,85.52973090277774,0)" xlink:href="#am"/><use transform="matrix(0.00987413194444444,0,0,0.00987413194444444,90.43717447916663,0)" xlink:href="#ah"/><use transform="matrix(0.00987413194444444,0,0,0.00987413194444444,101.59494357638884,0)" xlink:href="#an"/></g><path d="M729 0H543v-1233l-373 137v-168l530-199h29V0" id="ay"/><g id="i"><use transform="matrix(0.009874131944444444,0,0,0.009874131944444444,0,0)" xlink:href="#ay"/><use transform="matrix(0.009874131944444444,0,0,0.009874131944444444,11.35525173611111,0)" xlink:href="#at"/></g><g id="j"><use transform="matrix(0.009874131944444444,0,0,0.009874131944444444,0,0)" xlink:href="#Y"/><use transform="matrix(0.009874131944444444,0,0,0.009874131944444444,8.33376736111111,0)" xlink:href="#Z"/><use transform="matrix(0.009874131944444444,0,0,0.009874131944444444,19.86675347222222,0)" xlink:href="#aa"/><use transform="matrix(0.009874131944444444,0,0,0.009874131944444444,31.21213107638889,0)" xlink:href="#ab"/><use transform="matrix(0.009874131944444444,0,0,0.009874131944444444,37.81792534722222,0)" xlink:href="#Y"/><use transform="matrix(0.009874131944444444,0,0,0.009874131944444444,46.15169270833333,0)" xlink:href="#am"/><use transform="matrix(0.009874131944444444,0,0,0.009874131944444444,51.059136284722214,0)" xlink:href="#ah"/><use transform="matrix(0.009874131944444444,0,0,0.009874131944444444,62.216905381944436,0)" xlink:href="#Y"/><use transform="matrix(0.009874131944444444,0,0,0.009874131944444444,70.55067274305554,0)" xlink:href="#ax"/></g><path d="M569-1476c255 0 440 146 439 390 0 143-91 314-274 512L344-151h731V0H121v-133l504-560c75-85 125-155 155-207 105-184 6-424-211-424-183 0-293 113-291 297H93c-3-270 199-449 476-449" id="az"/><g id="k"><use transform="matrix(0.009874131944444444,0,0,0.009874131944444444,0,0)" xlink:href="#az"/><use transform="matrix(0.009874131944444444,0,0,0.009874131944444444,11.35525173611111,0)" xlink:href="#at"/></g><path d="M631-137c179 0 314-70 314-231 0-71-25-127-75-166s-141-77-272-115c-165-47-285-106-360-175s-112-154-112-255c0-245 231-397 495-397 206 0 369 89 449 218 43 68 65 142 65 223H942c0-184-129-283-321-283-172 0-299 76-301 236 0 59 26 109 76 150s135 78 256 113c205 59 345 116 436 256 35 53 50 119 50 193-2 256-231 398-507 390C333 12 90-129 80-422h193c0 187 160 285 358 285" id="aA"/><path d="M992-673H361v516h733V0H169v-1456h915v158H361v468h631v157" id="aB"/><path d="M1161-1018c0 201-122 330-278 388l342 618V0h-206L703-589H361V0H168v-1456h482c310-2 511 139 511 438zm-193 0c0-187-120-280-313-280H361v552h295c179 3 313-101 312-272" id="aC"/><path d="M651-255l416-1201h210L737 0H567L28-1456h209" id="aD"/><path d="M1216-1011c-1 297-202 441-512 441H361V0H169v-1456h537c297-6 510 164 510 445zm-192 2c1-178-126-288-307-289H361v571h345c196 1 318-92 318-282" id="aE"/><path d="M703-1476c426 0 599 333 586 795-11 408-187 701-584 701-422 0-587-333-587-793 0-282 106-507 280-617 89-56 190-86 305-86zm2 1333c312 0 393-279 393-632 0-308-116-536-395-536-269 0-394 232-394 523v107c-4 298 123 538 396 538" id="aF"/><path d="M972-643H361V0H169v-1456h902v158H361v498h611v157" id="aG"/><path d="M375 0H183v-1456h192V0" id="aH"/><path d="M362-157h690V0H169v-1456h193v1299" id="aI"/><g id="l"><use transform="matrix(0.009874131944444444,0,0,0.009874131944444444,0,0)" xlink:href="#aA"/><use transform="matrix(0.009874131944444444,0,0,0.009874131944444444,11.9970703125,0)" xlink:href="#aB"/><use transform="matrix(0.009874131944444444,0,0,0.009874131944444444,23.490559895833332,0)" xlink:href="#aC"/><use transform="matrix(0.009874131944444444,0,0,0.009874131944444444,35.754231770833336,0)" xlink:href="#aD"/><use transform="matrix(0.009874131944444444,0,0,0.009874131944444444,48.62022569444444,0)" xlink:href="#aB"/><use transform="matrix(0.009874131944444444,0,0,0.009874131944444444,60.11371527777778,0)" xlink:href="#aC"/><use transform="matrix(0.009874131944444444,0,0,0.009874131944444444,72.56499565972221,0)" xlink:href="#aq"/><use transform="matrix(0.009874131944444444,0,0,0.009874131944444444,81.68869357638889,0)" xlink:href="#aE"/><use transform="matrix(0.009874131944444444,0,0,0.009874131944444444,94.44607204861111,0)" xlink:href="#aC"/><use transform="matrix(0.009874131944444444,0,0,0.009874131944444444,106.89735243055556,0)" xlink:href="#aF"/><use transform="matrix(0.009874131944444444,0,0,0.009874131944444444,120.80013020833333,0)" xlink:href="#aG"/><use transform="matrix(0.009874131944444444,0,0,0.009874131944444444,131.97764756944443,0)" xlink:href="#aH"/><use transform="matrix(0.009874131944444444,0,0,0.009874131944444444,137.47753906249997,0)" xlink:href="#aI"/><use transform="matrix(0.009874131944444444,0,0,0.009874131944444444,148.35883246527774,0)" xlink:href="#aB"/><use transform="matrix(0.009874131944444444,0,0,0.009874131944444444,159.8523220486111,0)" xlink:href="#aq"/><use transform="matrix(0.009874131944444444,0,0,0.009874131944444444,168.97601996527774,0)" xlink:href="#ag"/><use transform="matrix(0.009874131944444444,0,0,0.009874131944444444,182.08886718749994,0)" xlink:href="#aC"/><use transform="matrix(0.009874131944444444,0,0,0.009874131944444444,194.54014756944443,0)" xlink:href="#aI"/></g><g id="m"><use transform="matrix(0.009874131944444444,0,0,0.009874131944444444,0,0)" xlink:href="#ao"/><use transform="matrix(0.009874131944444444,0,0,0.009874131944444444,7.0205078125,0)" xlink:href="#am"/><use transform="matrix(0.009874131944444444,0,0,0.009874131944444444,11.92795138888889,0)" xlink:href="#av"/><use transform="matrix(0.009874131944444444,0,0,0.009874131944444444,16.83539496527778,0)" xlink:href="#ad"/><use transform="matrix(0.009874131944444444,0,0,0.009874131944444444,27.548828125,0)" xlink:href="#ac"/></g><g id="n"><use transform="matrix(0.010959201388888886,0,0,0.010959201388888886,0,0)" xlink:href="#aA"/><use transform="matrix(0.010959201388888886,0,0,0.010959201388888886,13.315429687499996,0)" xlink:href="#ab"/><use transform="matrix(0.010959201388888886,0,0,0.010959201388888886,20.64713541666666,0)" xlink:href="#ad"/><use transform="matrix(0.010959201388888886,0,0,0.010959201388888886,32.5378689236111,0)" xlink:href="#aa"/></g><path d="M248 11c-71 0-114-43-114-108 0-67 42-112 114-112s116 45 116 112c-1 65-45 108-116 108zm1-883c-71 0-114-43-114-108 0-67 42-112 114-112s116 45 116 112c-1 65-45 108-116 108" id="aJ"/><g id="o"><use transform="matrix(0.010959201388888886,0,0,0.010959201388888886,0,0)" xlink:href="#ay"/><use transform="matrix(0.010959201388888886,0,0,0.010959201388888886,12.60308159722222,0)" xlink:href="#aJ"/></g><path d="M688-137c238 0 323-102 359-325h193c-32 297-228 482-552 482-361 0-569-299-569-680 0-197 8-360 73-497 88-186 257-317 513-319 316-2 509 195 535 488h-193c-31-212-118-330-342-330-272 0-397 224-393 523v141c-3 282 115 517 376 517" id="aK"/><g id="p"><use transform="matrix(0.010959201388888886,0,0,0.010959201388888886,0,0)" xlink:href="#aK"/><use transform="matrix(0.010959201388888886,0,0,0.010959201388888886,14.608615451388886,0)" xlink:href="#Z"/><use transform="matrix(0.010959201388888886,0,0,0.010959201388888886,27.408962673611104,0)" xlink:href="#aa"/><use transform="matrix(0.010959201388888886,0,0,0.010959201388888886,39.88053385416666,0)" xlink:href="#aw"/></g><path d="M1098-255l208-827h185L1176 0h-150L763-820 507 0H357L43-1082h184l213 810 252-810h149" id="aL"/><g id="q"><use transform="matrix(0.010959201388888886,0,0,0.010959201388888886,0,0)" xlink:href="#ah"/><use transform="matrix(0.010959201388888886,0,0,0.010959201388888886,12.383897569444441,0)" xlink:href="#ad"/><use transform="matrix(0.010959201388888886,0,0,0.010959201388888886,24.274631076388882,0)" xlink:href="#aL"/></g><g id="r"><use transform="matrix(0.010959201388888886,0,0,0.010959201388888886,0,0)" xlink:href="#ao"/><use transform="matrix(0.010959201388888886,0,0,0.010959201388888886,7.791992187499998,0)" xlink:href="#am"/><use transform="matrix(0.010959201388888886,0,0,0.010959201388888886,13.238715277777775,0)" xlink:href="#av"/><use transform="matrix(0.010959201388888886,0,0,0.010959201388888886,18.68543836805555,0)" xlink:href="#ad"/><use transform="matrix(0.010959201388888886,0,0,0.010959201388888886,30.576171874999993,0)" xlink:href="#ac"/></g><g id="s"><use transform="matrix(0.010959201388888886,0,0,0.010959201388888886,0,0)" xlink:href="#Z"/><use transform="matrix(0.010959201388888886,0,0,0.010959201388888886,12.80034722222222,0)" xlink:href="#ah"/><use transform="matrix(0.010959201388888886,0,0,0.010959201388888886,25.18424479166666,0)" xlink:href="#av"/><use transform="matrix(0.010959201388888886,0,0,0.010959201388888886,30.630967881944436,0)" xlink:href="#aw"/></g><g id="t"><use transform="matrix(0.009874131944444444,0,0,0.009874131944444444,0,0)" xlink:href="#Y"/><use transform="matrix(0.009874131944444444,0,0,0.009874131944444444,8.33376736111111,0)" xlink:href="#Z"/><use transform="matrix(0.009874131944444444,0,0,0.009874131944444444,19.86675347222222,0)" xlink:href="#aa"/><use transform="matrix(0.009874131944444444,0,0,0.009874131944444444,31.21213107638889,0)" xlink:href="#ab"/><use transform="matrix(0.009874131944444444,0,0,0.009874131944444444,37.81792534722222,0)" xlink:href="#Y"/><use transform="matrix(0.009874131944444444,0,0,0.009874131944444444,46.15169270833333,0)" xlink:href="#Z"/><use transform="matrix(0.009874131944444444,0,0,0.009874131944444444,57.68467881944444,0)" xlink:href="#ai"/><use transform="matrix(0.009874131944444444,0,0,0.009874131944444444,68.83257378472221,0)" xlink:href="#ab"/><use transform="matrix(0.009874131944444444,0,0,0.009874131944444444,75.43836805555554,0)" xlink:href="#Y"/><use transform="matrix(0.009874131944444444,0,0,0.009874131944444444,83.77213541666666,0)" xlink:href="#am"/><use transform="matrix(0.009874131944444444,0,0,0.009874131944444444,88.67957899305553,0)" xlink:href="#ah"/><use transform="matrix(0.009874131944444444,0,0,0.009874131944444444,99.83734809027777,0)" xlink:href="#ac"/><use transform="matrix(0.009874131944444444,0,0,0.009874131944444444,110.2644314236111,0)" xlink:href="#ab"/><use transform="matrix(0.009874131944444444,0,0,0.009874131944444444,116.87022569444443,0)" xlink:href="#ap"/><use transform="matrix(0.009874131944444444,0,0,0.009874131944444444,127.87000868055556,0)" xlink:href="#ah"/><use transform="matrix(0.009874131944444444,0,0,0.009874131944444444,139.02777777777777,0)" xlink:href="#aj"/><use transform="matrix(0.009874131944444444,0,0,0.009874131944444444,149.61284722222223,0)" xlink:href="#ad"/></g><g id="u"><use transform="matrix(0.009874131944444444,0,0,0.009874131944444444,0,0)" xlink:href="#Y"/><use transform="matrix(0.009874131944444444,0,0,0.009874131944444444,8.33376736111111,0)" xlink:href="#Z"/><use transform="matrix(0.009874131944444444,0,0,0.009874131944444444,19.86675347222222,0)" xlink:href="#aa"/><use transform="matrix(0.009874131944444444,0,0,0.009874131944444444,31.21213107638889,0)" xlink:href="#ab"/><use transform="matrix(0.009874131944444444,0,0,0.009874131944444444,37.81792534722222,0)" xlink:href="#Y"/><use transform="matrix(0.009874131944444444,0,0,0.009874131944444444,46.15169270833333,0)" xlink:href="#ac"/><use transform="matrix(0.009874131944444444,0,0,0.009874131944444444,56.57877604166666,0)" xlink:href="#ad"/><use transform="matrix(0.009874131944444444,0,0,0.009874131944444444,67.29220920138889,0)" xlink:href="#ae"/><use transform="matrix(0.009874131944444444,0,0,0.009874131944444444,74.31271701388889,0)" xlink:href="#af"/><use transform="matrix(0.009874131944444444,0,0,0.009874131944444444,83.9794921875,0)" xlink:href="#ad"/><use transform="matrix(0.009874131944444444,0,0,0.009874131944444444,94.69292534722224,0)" xlink:href="#ae"/><use transform="matrix(0.009874131944444444,0,0,0.009874131944444444,101.53569878472224,0)" xlink:href="#Y"/><use transform="matrix(0.009874131944444444,0,0,0.009874131944444444,109.86946614583334,0)" xlink:href="#ax"/></g><g id="v"><use transform="matrix(0.009874131944444444,0,0,0.009874131944444444,0,0)" xlink:href="#Y"/><use transform="matrix(0.009874131944444444,0,0,0.009874131944444444,8.33376736111111,0)" xlink:href="#Z"/><use transform="matrix(0.009874131944444444,0,0,0.009874131944444444,19.86675347222222,0)" xlink:href="#aa"/><use transform="matrix(0.009874131944444444,0,0,0.009874131944444444,31.21213107638889,0)" xlink:href="#ab"/><use transform="matrix(0.009874131944444444,0,0,0.009874131944444444,37.81792534722222,0)" xlink:href="#Y"/><use transform="matrix(0.009874131944444444,0,0,0.009874131944444444,46.15169270833333,0)" xlink:href="#ac"/><use transform="matrix(0.009874131944444444,0,0,0.009874131944444444,56.57877604166666,0)" xlink:href="#ab"/><use transform="matrix(0.009874131944444444,0,0,0.009874131944444444,63.184570312499986,0)" xlink:href="#ap"/><use transform="matrix(0.009874131944444444,0,0,0.009874131944444444,74.1843532986111,0)" xlink:href="#an"/><use transform="matrix(0.009874131944444444,0,0,0.009874131944444444,85.52973090277777,0)" xlink:href="#am"/><use transform="matrix(0.009874131944444444,0,0,0.009874131944444444,90.43717447916666,0)" xlink:href="#ah"/><use transform="matrix(0.009874131944444444,0,0,0.009874131944444444,101.59494357638889,0)" xlink:href="#an"/><use transform="matrix(0.009874131944444444,0,0,0.009874131944444444,112.94032118055556,0)" xlink:href="#Y"/><use transform="matrix(0.009874131944444444,0,0,0.009874131944444444,121.27408854166669,0)" xlink:href="#ax"/></g><path d="M185-48c-13 30-37 53-82 52C43 2 14-33 14-96s30-98 90-98c62 0 83 45 84 108H66c0 31 8 55 39 56 18 0 30-7 34-22zm-45-69c5-46-57-63-70-21-2 6-4 13-4 21h74" id="aM"/><path d="M135-194c87-1 58 113 63 194h-50c-7-57 23-157-34-157-59 0-34 97-39 157H25l-1-190h47c2 12-1 28 3 38 12-26 28-41 61-42" id="aN"/><path d="M128 0H69L1-190h53L99-40l48-150h52" id="aO"/><path d="M137-138c1-29-70-34-71-4 15 46 118 7 119 86 1 83-164 76-172 9l43-7c4 19 20 25 44 25 33 8 57-30 24-41C81-84 22-81 20-136c-2-80 154-74 161-7" id="aP"/><path d="M85 4C-2 5 27-109 22-190h50c7 57-23 150 33 157 60-5 35-97 40-157h50l1 190h-47c-2-12 1-28-3-38-12 25-28 42-61 42" id="aQ"/><path d="M135-194c52 0 70 43 70 98 0 56-19 99-73 100-30 1-46-15-58-35L72 0H24l1-261h50v104c11-23 29-37 60-37zM114-30c31 0 40-27 40-66 0-37-7-63-39-63s-41 28-41 65c0 36 8 64 40 64" id="aR"/><path d="M115-3C79 11 28 4 28-45v-112H4v-33h27l15-45h31v45h36v33H77v99c-1 23 16 31 38 25v30" id="aS"/><g id="w"><use transform="matrix(0.05,0,0,0.05,0,0)" xlink:href="#aM"/><use transform="matrix(0.05,0,0,0.05,10,0)" xlink:href="#aN"/><use transform="matrix(0.05,0,0,0.05,20.950000000000003,0)" xlink:href="#aO"/><use transform="matrix(0.05,0,0,0.05,30.950000000000003,0)" xlink:href="#aP"/><use transform="matrix(0.05,0,0,0.05,40.95,0)" xlink:href="#aQ"/><use transform="matrix(0.05,0,0,0.05,51.900000000000006,0)" xlink:href="#aR"/><use transform="matrix(0.05,0,0,0.05,62.85,0)" xlink:href="#aP"/><use transform="matrix(0.05,0,0,0.05,72.85000000000001,0)" xlink:href="#aS"/></g><g id="x"><use transform="matrix(0.010959201388888886,0,0,0.010959201388888886,0,0)" xlink:href="#az"/><use transform="matrix(0.010959201388888886,0,0,0.010959201388888886,12.60308159722222,0)" xlink:href="#aJ"/></g><g id="y"><use transform="matrix(0.010959201388888886,0,0,0.010959201388888886,0,0)" xlink:href="#ap"/><use transform="matrix(0.010959201388888886,0,0,0.010959201388888886,12.20855034722222,0)" xlink:href="#ah"/><use transform="matrix(0.010959201388888886,0,0,0.010959201388888886,24.59244791666666,0)" xlink:href="#al"/></g><g id="z"><use transform="matrix(0.010959201388888886,0,0,0.010959201388888886,0,0)" xlink:href="#ae"/><use transform="matrix(0.010959201388888886,0,0,0.010959201388888886,7.38650173611111,0)" xlink:href="#ad"/><use transform="matrix(0.010959201388888886,0,0,0.010959201388888886,19.27723524305555,0)" xlink:href="#aa"/><use transform="matrix(0.010959201388888886,0,0,0.010959201388888886,31.869357638888875,0)" xlink:href="#av"/><use transform="matrix(0.010959201388888886,0,0,0.010959201388888886,37.31608072916666,0)" xlink:href="#ap"/><use transform="matrix(0.010959201388888886,0,0,0.010959201388888886,49.52463107638888,0)" xlink:href="#aj"/><use transform="matrix(0.010959201388888886,0,0,0.010959201388888886,61.272894965277764,0)" xlink:href="#ad"/></g><g id="A"><use transform="matrix(0.009874131944444442,0,0,0.009874131944444442,0,0)" xlink:href="#Y"/><use transform="matrix(0.009874131944444442,0,0,0.009874131944444442,8.333767361111109,0)" xlink:href="#Z"/><use transform="matrix(0.009874131944444442,0,0,0.009874131944444442,19.866753472222218,0)" xlink:href="#aa"/><use transform="matrix(0.009874131944444442,0,0,0.009874131944444442,31.212131076388882,0)" xlink:href="#ab"/><use transform="matrix(0.009874131944444442,0,0,0.009874131944444442,37.817925347222214,0)" xlink:href="#Y"/><use transform="matrix(0.009874131944444442,0,0,0.009874131944444442,46.15169270833332,0)" xlink:href="#Z"/><use transform="matrix(0.009874131944444442,0,0,0.009874131944444442,57.68467881944443,0)" xlink:href="#ai"/><use transform="matrix(0.009874131944444442,0,0,0.009874131944444442,68.8325737847222,0)" xlink:href="#ab"/><use transform="matrix(0.009874131944444442,0,0,0.009874131944444442,75.43836805555553,0)" xlink:href="#Y"/><use transform="matrix(0.009874131944444442,0,0,0.009874131944444442,83.77213541666664,0)" xlink:href="#am"/><use transform="matrix(0.009874131944444442,0,0,0.009874131944444442,88.67957899305554,0)" xlink:href="#ah"/><use transform="matrix(0.009874131944444442,0,0,0.009874131944444442,99.83734809027774,0)" xlink:href="#ac"/><use transform="matrix(0.009874131944444442,0,0,0.009874131944444442,110.26443142361107,0)" xlink:href="#ab"/><use transform="matrix(0.009874131944444442,0,0,0.009874131944444442,116.8702256944444,0)" xlink:href="#ap"/><use transform="matrix(0.009874131944444442,0,0,0.009874131944444442,127.87000868055551,0)" xlink:href="#ah"/><use transform="matrix(0.009874131944444442,0,0,0.009874131944444442,139.02777777777774,0)" xlink:href="#aj"/><use transform="matrix(0.009874131944444442,0,0,0.009874131944444442,149.61284722222217,0)" xlink:href="#ad"/><use transform="matrix(0.009874131944444442,0,0,0.009874131944444442,160.3262803819444,0)" xlink:href="#Y"/><use transform="matrix(0.009874131944444442,0,0,0.009874131944444442,168.66004774305551,0)" xlink:href="#ac"/><use transform="matrix(0.009874131944444442,0,0,0.009874131944444442,179.08713107638886,0)" xlink:href="#ad"/><use transform="matrix(0.009874131944444442,0,0,0.009874131944444442,189.80056423611106,0)" xlink:href="#ae"/><use transform="matrix(0.009874131944444442,0,0,0.009874131944444442,196.82107204861106,0)" xlink:href="#af"/><use transform="matrix(0.009874131944444442,0,0,0.009874131944444442,206.4878472222222,0)" xlink:href="#ad"/><use transform="matrix(0.009874131944444442,0,0,0.009874131944444442,217.20128038194443,0)" xlink:href="#ae"/><use transform="matrix(0.009874131944444442,0,0,0.009874131944444442,224.04405381944443,0)" xlink:href="#Y"/><use transform="matrix(0.009874131944444442,0,0,0.009874131944444442,232.37782118055554,0)" xlink:href="#al"/><use transform="matrix(0.009874131944444442,0,0,0.009874131944444442,243.78244357638889,0)" xlink:href="#ad"/><use transform="matrix(0.009874131944444442,0,0,0.009874131944444442,254.49587673611111,0)" xlink:href="#ao"/><use transform="matrix(0.009874131944444442,0,0,0.009874131944444442,261.5163845486111,0)" xlink:href="#ap"/><use transform="matrix(0.009874131944444442,0,0,0.009874131944444442,272.5161675347222,0)" xlink:href="#ai"/><use transform="matrix(0.009874131944444442,0,0,0.009874131944444442,283.66406249999994,0)" xlink:href="#av"/><use transform="matrix(0.009874131944444442,0,0,0.009874131944444442,288.57150607638886,0)" xlink:href="#ab"/><use transform="matrix(0.009874131944444442,0,0,0.009874131944444442,295.1773003472222,0)" xlink:href="#Y"/><use transform="matrix(0.009874131944444442,0,0,0.009874131944444442,303.51106770833326,0)" xlink:href="#al"/><use transform="matrix(0.009874131944444442,0,0,0.009874131944444442,314.9156901041666,0)" xlink:href="#ap"/><use transform="matrix(0.009874131944444442,0,0,0.009874131944444442,325.91547309027766,0)" xlink:href="#ab"/><use transform="matrix(0.009874131944444442,0,0,0.009874131944444442,332.521267361111,0)" xlink:href="#ap"/></g><path d="M525-543H37v-151h488v151" id="aT"/><use transform="matrix(0.009874131944444442,0,0,0.009874131944444442,0,0)" xlink:href="#aT" id="B"/><g id="C"><use transform="matrix(0.009874131944444442,0,0,0.009874131944444442,0,0)" xlink:href="#aE"/><use transform="matrix(0.009874131944444442,0,0,0.009874131944444442,12.75737847222222,0)" xlink:href="#aD"/><use transform="matrix(0.009874131944444442,0,0,0.009874131944444442,25.49500868055555,0)" xlink:href="#aK"/></g><path d="M973-380H363L226 0H28l556-1456h168L1309 0h-197zM421-538h495l-248-681" id="aU"/><path d="M1240-945c-141 0-250 95-250 227V0H804v-709c0-157-77-236-231-236-121 0-204 52-249 155V0H139v-1082h175l5 120c79-93 186-140 321-140 151 0 254 58 309 174 69-98 181-174 345-174 237 0 362 126 362 377V0h-185v-714c-2-159-67-231-231-231" id="aV"/><g id="D"><use transform="matrix(0.00987413194444444,0,0,0.00987413194444444,0,0)" xlink:href="#aU"/><use transform="matrix(0.00987413194444444,0,0,0.00987413194444444,13.191840277777773,0)" xlink:href="#al"/><use transform="matrix(0.00987413194444444,0,0,0.00987413194444444,24.5964626736111,0)" xlink:href="#aV"/><use transform="matrix(0.00987413194444444,0,0,0.00987413194444444,42.32052951388887,0)" xlink:href="#am"/><use transform="matrix(0.00987413194444444,0,0,0.00987413194444444,47.22797309027776,0)" xlink:href="#ah"/></g><g id="E"><use transform="matrix(0.00987413194444444,0,0,0.00987413194444444,0,0)" xlink:href="#aj"/><use transform="matrix(0.00987413194444444,0,0,0.00987413194444444,10.585069444444441,0)" xlink:href="#Z"/><use transform="matrix(0.00987413194444444,0,0,0.00987413194444444,22.11805555555555,0)" xlink:href="#ah"/><use transform="matrix(0.00987413194444444,0,0,0.00987413194444444,33.27582465277777,0)" xlink:href="#ao"/><use transform="matrix(0.00987413194444444,0,0,0.00987413194444444,40.29633246527777,0)" xlink:href="#am"/><use transform="matrix(0.00987413194444444,0,0,0.00987413194444444,45.20377604166666,0)" xlink:href="#an"/></g><g id="F"><use transform="matrix(0.00987413194444444,0,0,0.00987413194444444,0,0)" xlink:href="#aA"/><use transform="matrix(0.00987413194444444,0,0,0.00987413194444444,11.997070312499995,0)" xlink:href="#aB"/><use transform="matrix(0.00987413194444444,0,0,0.00987413194444444,23.490559895833318,0)" xlink:href="#aC"/><use transform="matrix(0.00987413194444444,0,0,0.00987413194444444,35.754231770833314,0)" xlink:href="#aD"/><use transform="matrix(0.00987413194444444,0,0,0.00987413194444444,48.62022569444443,0)" xlink:href="#aB"/><use transform="matrix(0.00987413194444444,0,0,0.00987413194444444,60.11371527777776,0)" xlink:href="#aC"/><use transform="matrix(0.00987413194444444,0,0,0.00987413194444444,72.56499565972219,0)" xlink:href="#aq"/><use transform="matrix(0.00987413194444444,0,0,0.00987413194444444,81.68869357638884,0)" xlink:href="#aE"/><use transform="matrix(0.00987413194444444,0,0,0.00987413194444444,94.44607204861106,0)" xlink:href="#aC"/><use transform="matrix(0.00987413194444444,0,0,0.00987413194444444,106.8973524305555,0)" xlink:href="#aF"/><use transform="matrix(0.00987413194444444,0,0,0.00987413194444444,120.80013020833327,0)" xlink:href="#aG"/><use transform="matrix(0.00987413194444444,0,0,0.00987413194444444,131.97764756944437,0)" xlink:href="#aH"/><use transform="matrix(0.00987413194444444,0,0,0.00987413194444444,137.47753906249991,0)" xlink:href="#aI"/><use transform="matrix(0.00987413194444444,0,0,0.00987413194444444,148.3588324652777,0)" xlink:href="#aB"/><use transform="matrix(0.00987413194444444,0,0,0.00987413194444444,159.85232204861103,0)" xlink:href="#aq"/><use transform="matrix(0.00987413194444444,0,0,0.00987413194444444,168.9760199652777,0)" xlink:href="#ag"/><use transform="matrix(0.00987413194444444,0,0,0.00987413194444444,182.08886718749991,0)" xlink:href="#aC"/><use transform="matrix(0.00987413194444444,0,0,0.00987413194444444,194.54014756944434,0)" xlink:href="#aI"/></g><path d="M634-1102c292 0 422 254 422 573 0 298-143 547-420 549-137 0-242-48-317-145L310 0H140v-1536h185v573c75-93 178-139 309-139zm-44 965c207 0 281-175 281-413 0-224-79-395-283-395-122 0-210 57-263 170v468c57 113 145 170 265 170" id="aW"/><g id="G"><use transform="matrix(0.009874131944444444,0,0,0.009874131944444444,0,0)" xlink:href="#am"/><use transform="matrix(0.009874131944444444,0,0,0.009874131944444444,4.907443576388888,0)" xlink:href="#ah"/><use transform="matrix(0.009874131944444444,0,0,0.009874131944444444,16.06521267361111,0)" xlink:href="#ac"/><use transform="matrix(0.009874131944444444,0,0,0.009874131944444444,26.492296006944443,0)" xlink:href="#ab"/><use transform="matrix(0.009874131944444444,0,0,0.009874131944444444,33.09809027777778,0)" xlink:href="#ap"/><use transform="matrix(0.009874131944444444,0,0,0.009874131944444444,44.097873263888886,0)" xlink:href="#ah"/><use transform="matrix(0.009874131944444444,0,0,0.009874131944444444,55.25564236111111,0)" xlink:href="#aj"/><use transform="matrix(0.009874131944444444,0,0,0.009874131944444444,65.84071180555556,0)" xlink:href="#ad"/><use transform="matrix(0.009874131944444444,0,0,0.009874131944444444,76.55414496527777,0)" xlink:href="#Y"/><use transform="matrix(0.009874131944444444,0,0,0.009874131944444444,84.88791232638889,0)" xlink:href="#aW"/><use transform="matrix(0.009874131944444444,0,0,0.009874131944444444,96.23328993055556,0)" xlink:href="#am"/><use transform="matrix(0.009874131944444444,0,0,0.009874131944444444,101.14073350694444,0)" xlink:href="#ah"/><use transform="matrix(0.009874131944444444,0,0,0.009874131944444444,112.29850260416666,0)" xlink:href="#Y"/><use transform="matrix(0.009874131944444444,0,0,0.009874131944444444,120.63226996527777,0)" xlink:href="#ae"/><use transform="matrix(0.009874131944444444,0,0,0.009874131944444444,127.47504340277777,0)" xlink:href="#ai"/><use transform="matrix(0.009874131944444444,0,0,0.009874131944444444,138.62293836805554,0)" xlink:href="#ah"/><use transform="matrix(0.009874131944444444,0,0,0.009874131944444444,149.78070746527777,0)" xlink:href="#at"/><use transform="matrix(0.009874131944444444,0,0,0.009874131944444444,155.10286458333331,0)" xlink:href="#aa"/><use transform="matrix(0.009874131944444444,0,0,0.009874131944444444,166.44824218749997,0)" xlink:href="#ae"/><use transform="matrix(0.009874131944444444,0,0,0.009874131944444444,173.09353298611106,0)" xlink:href="#Z"/><use transform="matrix(0.009874131944444444,0,0,0.009874131944444444,184.62651909722223,0)" xlink:href="#aa"/><use transform="matrix(0.009874131944444444,0,0,0.009874131944444444,195.97189670138886,0)" xlink:href="#ad"/><use transform="matrix(0.009874131944444444,0,0,0.009874131944444444,206.68532986111111,0)" xlink:href="#ae"/><use transform="matrix(0.009874131944444444,0,0,0.009874131944444444,214.02180989583331,0)" xlink:href="#ab"/><use transform="matrix(0.009874131944444444,0,0,0.009874131944444444,220.62760416666666,0)" xlink:href="#am"/><use transform="matrix(0.009874131944444444,0,0,0.009874131944444444,225.53504774305554,0)" xlink:href="#ad"/><use transform="matrix(0.009874131944444444,0,0,0.009874131944444444,236.24848090277777,0)" xlink:href="#ac"/><use transform="matrix(0.009874131944444444,0,0,0.009874131944444444,246.67556423611111,0)" xlink:href="#at"/><use transform="matrix(0.009874131944444444,0,0,0.009874131944444444,251.99772135416666,0)" xlink:href="#ac"/><use transform="matrix(0.009874131944444444,0,0,0.009874131944444444,262.4248046875,0)" xlink:href="#ai"/><use transform="matrix(0.009874131944444444,0,0,0.009874131944444444,273.57269965277777,0)" xlink:href="#aW"/><use transform="matrix(0.009874131944444444,0,0,0.009874131944444444,284.91807725694446,0)" xlink:href="#ac"/><use transform="matrix(0.009874131944444444,0,0,0.009874131944444444,295.34516059027777,0)" xlink:href="#ab"/></g><path d="M417-1456L893-268l476-1188h249V0h-192c-4-403 4-794 18-1179L966 0H819L342-1176c15 384 23 773 19 1176H169v-1456h248" id="aX"/><path d="M1175-1298H707V0H516v-1298H49v-158h1126v158" id="aY"/><path d="M1288 0h-193L362-1122V0H169v-1456h193l735 1127v-1127h191V0" id="aZ"/><path d="M503-687l240-395h216L605-547 970 0H756L506-405 256 0H41l365-547-354-535h214" id="ba"/><g id="H"><use transform="matrix(0.009874131944444444,0,0,0.009874131944444444,0,0)" xlink:href="#am"/><use transform="matrix(0.009874131944444444,0,0,0.009874131944444444,4.907443576388888,0)" xlink:href="#ah"/><use transform="matrix(0.009874131944444444,0,0,0.009874131944444444,16.06521267361111,0)" xlink:href="#ac"/><use transform="matrix(0.009874131944444444,0,0,0.009874131944444444,26.492296006944443,0)" xlink:href="#ab"/><use transform="matrix(0.009874131944444444,0,0,0.009874131944444444,33.09809027777778,0)" xlink:href="#ap"/><use transform="matrix(0.009874131944444444,0,0,0.009874131944444444,44.097873263888886,0)" xlink:href="#ah"/><use transform="matrix(0.009874131944444444,0,0,0.009874131944444444,55.25564236111111,0)" xlink:href="#aj"/><use transform="matrix(0.009874131944444444,0,0,0.009874131944444444,65.84071180555556,0)" xlink:href="#ad"/><use transform="matrix(0.009874131944444444,0,0,0.009874131944444444,76.55414496527777,0)" xlink:href="#Y"/><use transform="matrix(0.009874131944444444,0,0,0.009874131944444444,84.88791232638889,0)" xlink:href="#ac"/><use transform="matrix(0.009874131944444444,0,0,0.009874131944444444,95.31499565972221,0)" xlink:href="#ad"/><use transform="matrix(0.009874131944444444,0,0,0.009874131944444444,106.02842881944443,0)" xlink:href="#ae"/><use transform="matrix(0.009874131944444444,0,0,0.009874131944444444,113.04893663194443,0)" xlink:href="#af"/><use transform="matrix(0.009874131944444444,0,0,0.009874131944444444,122.71571180555556,0)" xlink:href="#ad"/><use transform="matrix(0.009874131944444444,0,0,0.009874131944444444,133.42914496527777,0)" xlink:href="#ae"/><use transform="matrix(0.009874131944444444,0,0,0.009874131944444444,140.27191840277777,0)" xlink:href="#Y"/><use transform="matrix(0.009874131944444444,0,0,0.009874131944444444,148.60568576388889,0)" xlink:href="#aj"/><use transform="matrix(0.009874131944444444,0,0,0.009874131944444444,159.19075520833334,0)" xlink:href="#Z"/><use transform="matrix(0.009874131944444444,0,0,0.009874131944444444,170.72374131944449,0)" xlink:href="#ah"/><use transform="matrix(0.009874131944444444,0,0,0.009874131944444444,181.88151041666669,0)" xlink:href="#ao"/><use transform="matrix(0.009874131944444444,0,0,0.009874131944444444,188.90201822916669,0)" xlink:href="#Y"/><use transform="matrix(0.009874131944444444,0,0,0.009874131944444444,197.2357855902778,0)" xlink:href="#aX"/><use transform="matrix(0.009874131944444444,0,0,0.009874131944444444,214.89073350694449,0)" xlink:href="#aB"/><use transform="matrix(0.009874131944444444,0,0,0.009874131944444444,226.58170572916669,0)" xlink:href="#aY"/><use transform="matrix(0.009874131944444444,0,0,0.009874131944444444,237.86783854166669,0)" xlink:href="#aU"/><use transform="matrix(0.009874131944444444,0,0,0.009874131944444444,251.05967881944446,0)" xlink:href="#aT"/><use transform="matrix(0.009874131944444444,0,0,0.009874131944444444,256.63856336805554,0)" xlink:href="#aH"/><use transform="matrix(0.009874131944444444,0,0,0.009874131944444444,262.1384548611111,0)" xlink:href="#aZ"/><use transform="matrix(0.009874131944444444,0,0,0.009874131944444444,276.5546875,0)" xlink:href="#aG"/><use transform="matrix(0.009874131944444444,0,0,0.009874131944444444,287.7322048611111,0)" xlink:href="#Y"/><use transform="matrix(0.009874131944444444,0,0,0.009874131944444444,296.0659722222222,0)" xlink:href="#ak"/><use transform="matrix(0.009874131944444444,0,0,0.009874131944444444,307.2039930555555,0)" xlink:href="#am"/><use transform="matrix(0.009874131944444444,0,0,0.009874131944444444,312.1114366319444,0)" xlink:href="#af"/><use transform="matrix(0.009874131944444444,0,0,0.009874131944444444,321.77821180555554,0)" xlink:href="#ad"/><use transform="matrix(0.009874131944444444,0,0,0.009874131944444444,332.49164496527777,0)" xlink:href="#aV"/><use transform="matrix(0.009874131944444444,0,0,0.009874131944444444,350.21571180555554,0)" xlink:href="#Z"/><use transform="matrix(0.009874131944444444,0,0,0.009874131944444444,361.74869791666663,0)" xlink:href="#al"/><use transform="matrix(0.009874131944444444,0,0,0.009874131944444444,373.1533203124999,0)" xlink:href="#ai"/><use transform="matrix(0.009874131944444444,0,0,0.009874131944444444,384.3012152777777,0)" xlink:href="#av"/><use transform="matrix(0.009874131944444444,0,0,0.009874131944444444,389.20865885416663,0)" xlink:href="#ad"/><use transform="matrix(0.009874131944444444,0,0,0.009874131944444444,399.92209201388886,0)" xlink:href="#at"/><use transform="matrix(0.009874131944444444,0,0,0.009874131944444444,405.2442491319444,0)" xlink:href="#ba"/><use transform="matrix(0.009874131944444444,0,0,0.009874131944444444,415.2664930555555,0)" xlink:href="#aV"/><use transform="matrix(0.009874131944444444,0,0,0.009874131944444444,432.99055989583326,0)" xlink:href="#av"/></g><g id="I"><use transform="matrix(0.009874131944444444,0,0,0.009874131944444444,0,0)" xlink:href="#am"/><use transform="matrix(0.009874131944444444,0,0,0.009874131944444444,4.907443576388888,0)" xlink:href="#ah"/><use transform="matrix(0.009874131944444444,0,0,0.009874131944444444,16.06521267361111,0)" xlink:href="#ac"/><use transform="matrix(0.009874131944444444,0,0,0.009874131944444444,26.492296006944443,0)" xlink:href="#ab"/><use transform="matrix(0.009874131944444444,0,0,0.009874131944444444,33.09809027777778,0)" xlink:href="#ap"/><use transform="matrix(0.009874131944444444,0,0,0.009874131944444444,44.097873263888886,0)" xlink:href="#ah"/><use transform="matrix(0.009874131944444444,0,0,0.009874131944444444,55.25564236111111,0)" xlink:href="#aj"/><use transform="matrix(0.009874131944444444,0,0,0.009874131944444444,65.84071180555556,0)" xlink:href="#ad"/><use transform="matrix(0.009874131944444444,0,0,0.009874131944444444,76.55414496527777,0)" xlink:href="#Y"/><use transform="matrix(0.009874131944444444,0,0,0.009874131944444444,84.88791232638889,0)" xlink:href="#ac"/><use transform="matrix(0.009874131944444444,0,0,0.009874131944444444,95.31499565972221,0)" xlink:href="#ad"/><use transform="matrix(0.009874131944444444,0,0,0.009874131944444444,106.02842881944443,0)" xlink:href="#ae"/><use transform="matrix(0.009874131944444444,0,0,0.009874131944444444,113.04893663194443,0)" xlink:href="#af"/><use transform="matrix(0.009874131944444444,0,0,0.009874131944444444,122.71571180555556,0)" xlink:href="#ad"/><use transform="matrix(0.009874131944444444,0,0,0.009874131944444444,133.42914496527777,0)" xlink:href="#ae"/><use transform="matrix(0.009874131944444444,0,0,0.009874131944444444,140.27191840277777,0)" xlink:href="#Y"/><use transform="matrix(0.009874131944444444,0,0,0.009874131944444444,148.60568576388889,0)" xlink:href="#al"/><use transform="matrix(0.009874131944444444,0,0,0.009874131944444444,160.01030815972223,0)" xlink:href="#ad"/><use transform="matrix(0.009874131944444444,0,0,0.009874131944444444,170.72374131944449,0)" xlink:href="#ao"/><use transform="matrix(0.009874131944444444,0,0,0.009874131944444444,177.74424913194449,0)" xlink:href="#ap"/><use transform="matrix(0.009874131944444444,0,0,0.009874131944444444,188.74403211805557,0)" xlink:href="#ai"/><use transform="matrix(0.009874131944444444,0,0,0.009874131944444444,199.89192708333331,0)" xlink:href="#av"/><use transform="matrix(0.009874131944444444,0,0,0.009874131944444444,204.7993706597222,0)" xlink:href="#ab"/><use transform="matrix(0.009874131944444444,0,0,0.009874131944444444,211.40516493055557,0)" xlink:href="#Y"/><use transform="matrix(0.009874131944444444,0,0,0.009874131944444444,219.73893229166669,0)" xlink:href="#al"/><use transform="matrix(0.009874131944444444,0,0,0.009874131944444444,231.14355468750003,0)" xlink:href="#ap"/><use transform="matrix(0.009874131944444444,0,0,0.009874131944444444,242.14333767361114,0)" xlink:href="#ab"/><use transform="matrix(0.009874131944444444,0,0,0.009874131944444444,248.74913194444446,0)" xlink:href="#ap"/><use transform="matrix(0.009874131944444444,0,0,0.009874131944444444,259.7489149305556,0)" xlink:href="#Y"/><use transform="matrix(0.009874131944444444,0,0,0.009874131944444444,268.0826822916667,0)" xlink:href="#ax"/></g><path d="M902-489h202v151H902V0H716v-338H53v-109l652-1009h197v967zm-639 0h453v-714l-22 40" id="bb"/><path d="M19 279c92 0 127-48 127-150v-1211h185V125c0 208-94 312-283 312-41 0-78-6-113-18V271c21 5 49 8 84 8zm216-1543c-68 0-107-42-108-105 0-61 42-107 108-107 68 0 110 44 110 107s-42 105-110 105" id="bc"/><g id="J"><use transform="matrix(0.009874131944444444,0,0,0.009874131944444444,0,0)" xlink:href="#am"/><use transform="matrix(0.009874131944444444,0,0,0.009874131944444444,4.907443576388888,0)" xlink:href="#ah"/><use transform="matrix(0.009874131944444444,0,0,0.009874131944444444,16.06521267361111,0)" xlink:href="#ac"/><use transform="matrix(0.009874131944444444,0,0,0.009874131944444444,26.492296006944443,0)" xlink:href="#ab"/><use transform="matrix(0.009874131944444444,0,0,0.009874131944444444,33.09809027777778,0)" xlink:href="#ap"/><use transform="matrix(0.009874131944444444,0,0,0.009874131944444444,44.097873263888886,0)" xlink:href="#ah"/><use transform="matrix(0.009874131944444444,0,0,0.009874131944444444,55.25564236111111,0)" xlink:href="#aj"/><use transform="matrix(0.009874131944444444,0,0,0.009874131944444444,65.84071180555556,0)" xlink:href="#ad"/><use transform="matrix(0.009874131944444444,0,0,0.009874131944444444,76.55414496527777,0)" xlink:href="#Y"/><use transform="matrix(0.009874131944444444,0,0,0.009874131944444444,84.88791232638889,0)" xlink:href="#ac"/><use transform="matrix(0.009874131944444444,0,0,0.009874131944444444,95.31499565972221,0)" xlink:href="#ad"/><use transform="matrix(0.009874131944444444,0,0,0.009874131944444444,106.02842881944443,0)" xlink:href="#ae"/><use transform="matrix(0.009874131944444444,0,0,0.009874131944444444,113.04893663194443,0)" xlink:href="#af"/><use transform="matrix(0.009874131944444444,0,0,0.009874131944444444,122.71571180555556,0)" xlink:href="#ad"/><use transform="matrix(0.009874131944444444,0,0,0.009874131944444444,133.42914496527777,0)" xlink:href="#ae"/><use transform="matrix(0.009874131944444444,0,0,0.009874131944444444,140.27191840277777,0)" xlink:href="#Y"/><use transform="matrix(0.009874131944444444,0,0,0.009874131944444444,148.60568576388889,0)" xlink:href="#al"/><use transform="matrix(0.009874131944444444,0,0,0.009874131944444444,160.01030815972223,0)" xlink:href="#ad"/><use transform="matrix(0.009874131944444444,0,0,0.009874131944444444,170.72374131944449,0)" xlink:href="#ao"/><use transform="matrix(0.009874131944444444,0,0,0.009874131944444444,177.74424913194449,0)" xlink:href="#ap"/><use transform="matrix(0.009874131944444444,0,0,0.009874131944444444,188.74403211805557,0)" xlink:href="#ai"/><use transform="matrix(0.009874131944444444,0,0,0.009874131944444444,199.89192708333331,0)" xlink:href="#av"/><use transform="matrix(0.009874131944444444,0,0,0.009874131944444444,204.7993706597222,0)" xlink:href="#ab"/><use transform="matrix(0.009874131944444444,0,0,0.009874131944444444,211.40516493055557,0)" xlink:href="#Y"/><use transform="matrix(0.009874131944444444,0,0,0.009874131944444444,219.73893229166669,0)" xlink:href="#aj"/><use transform="matrix(0.009874131944444444,0,0,0.009874131944444444,230.32400173611114,0)" xlink:href="#Z"/><use transform="matrix(0.009874131944444444,0,0,0.009874131944444444,241.85698784722226,0)" xlink:href="#ah"/><use transform="matrix(0.009874131944444444,0,0,0.009874131944444444,253.01475694444446,0)" xlink:href="#ao"/><use transform="matrix(0.009874131944444444,0,0,0.009874131944444444,260.03526475694446,0)" xlink:href="#Y"/><use transform="matrix(0.009874131944444444,0,0,0.009874131944444444,268.36903211805554,0)" xlink:href="#av"/><use transform="matrix(0.009874131944444444,0,0,0.009874131944444444,273.27647569444446,0)" xlink:href="#Z"/><use transform="matrix(0.009874131944444444,0,0,0.009874131944444444,284.80946180555554,0)" xlink:href="#an"/><use transform="matrix(0.009874131944444444,0,0,0.009874131944444444,296.15483940972223,0)" xlink:href="#bb"/><use transform="matrix(0.009874131944444444,0,0,0.009874131944444444,307.5100911458333,0)" xlink:href="#bc"/><use transform="matrix(0.009874131944444444,0,0,0.009874131944444444,312.33854166666663,0)" xlink:href="#az"/><use transform="matrix(0.009874131944444444,0,0,0.009874131944444444,323.6937934027777,0)" xlink:href="#at"/><use transform="matrix(0.009874131944444444,0,0,0.009874131944444444,329.01595052083326,0)" xlink:href="#ba"/><use transform="matrix(0.009874131944444444,0,0,0.009874131944444444,339.03819444444434,0)" xlink:href="#aV"/><use transform="matrix(0.009874131944444444,0,0,0.009874131944444444,356.7622612847221,0)" xlink:href="#av"/><use transform="matrix(0.009874131944444444,0,0,0.009874131944444444,361.66970486111103,0)" xlink:href="#at"/><use transform="matrix(0.009874131944444444,0,0,0.009874131944444444,366.9918619791666,0)" xlink:href="#ac"/><use transform="matrix(0.009874131944444444,0,0,0.009874131944444444,377.4189453124999,0)" xlink:href="#ai"/><use transform="matrix(0.009874131944444444,0,0,0.009874131944444444,388.5668402777777,0)" xlink:href="#aW"/><use transform="matrix(0.009874131944444444,0,0,0.009874131944444444,399.91221788194434,0)" xlink:href="#ac"/><use transform="matrix(0.009874131944444444,0,0,0.009874131944444444,410.3393012152777,0)" xlink:href="#ab"/></g><path d="M832-402c-1-179-119-264-303-265H390v-151h139c164 0 281-91 281-250 0-171-85-256-255-256-154 0-265 99-263 250H107c-4-235 205-402 448-402 266 0 444 150 440 412-2 148-109 272-229 317 147 45 249 158 251 341 3 262-197 426-461 426C299 20 91-135 94-384h186c-2 156 116 253 276 253 176 0 277-96 276-271" id="bd"/><g id="K"><use transform="matrix(0.010959201388888886,0,0,0.010959201388888886,0,0)" xlink:href="#bd"/><use transform="matrix(0.010959201388888886,0,0,0.010959201388888886,12.60308159722222,0)" xlink:href="#aJ"/></g><g id="L"><use transform="matrix(0.010959201388888886,0,0,0.010959201388888886,0,0)" xlink:href="#bb"/><use transform="matrix(0.010959201388888886,0,0,0.010959201388888886,12.60308159722222,0)" xlink:href="#aJ"/></g><path d="M202 125H-13l536-1581h215" id="be"/><path d="M579 20C257 20 58-214 66-551c8-331 182-551 511-551 324 0 514 231 514 572 0 319-198 550-512 550zm-2-888c-169 0-222 141-222 338 0 181 61 317 224 317 170 0 223-137 223-338 0-178-64-317-225-317" id="bf"/><path d="M663-1102c295 0 422 250 422 571 0 300-141 549-420 551-109 0-198-38-265-114v510H111v-1498h268l10 106c70-84 161-126 274-126zm133 550c0-175-53-315-209-315-91 0-153 35-187 104v443c35 71 98 107 189 107 138 0 207-113 207-339" id="bg"/><path d="M457-330c2 83 25 111 111 112 32 0 60-2 85-7V-6c-57 17-115 26-175 26-203 0-310-102-310-307v-583H10v-212h158v-266h289v266h185v212H457v540" id="bh"/><path d="M529-185c94 0 168-33 168-114 0-35-18-63-53-83s-91-39-168-55C219-491 90-600 90-765c0-208 203-337 432-337 246 0 451 124 453 349H686c-2-91-62-143-165-143-86 0-151 41-153 117 0 32 16 57 46 77 63 43 257 69 335 100 151 60 229 153 229 291C978-13 554 93 282-28 162-81 60-190 56-344h274c5 106 86 159 199 159" id="bi"/><path d="M552-1102c254-4 435 134 435 383v469c1 103 15 180 43 233V0H738c-13-26-23-58-29-97C639-19 548 20 436 20 238 20 64-113 68-304c5-258 212-357 496-357h133c11-137-29-227-160-227-90 0-156 45-156 131H92c15-231 213-342 460-345zM357-325c0 76 61 124 142 124 88 0 168-45 198-105v-186H589c-152 2-232 51-232 167" id="bj"/><path d="M505 20C221 18 69-239 69-549c0-302 153-553 438-553 119 0 211 41 277 122l12-102h262V-36c-8 305-208 458-520 462-160 1-335-76-403-170L263 80c72 81 159 121 262 121 172 1 260-107 243-294C701-18 614 20 505 20zm76-887c-165 0-223 147-223 339 0 172 66 314 221 314 88 0 151-33 189-99v-455c-39-66-101-99-187-99" id="bk"/><path d="M416 0H126v-1082h290V0zM271-1212c-92 0-162-61-162-150s68-149 162-149c93 0 162 60 162 149s-70 150-162 150" id="bl"/><path d="M750-692c-1-124-48-174-173-175-81 0-142 35-183 104V0H105v-1082h272l9 125c77-97 181-145 311-145 244 0 342 151 342 403V0H750v-692" id="bm"/><path d="M355-556c-2 203 30 338 206 343 102 3 181-63 182-161h271C1001-128 821 17 566 20 242 24 66-212 66-554c0-320 184-548 498-548 262 0 451 167 450 423H743c-1-108-75-193-184-189-162 6-202 123-204 312" id="bn"/><path d="M1031-175C952-60 797 20 609 20 287 20 60-206 72-543c12-330 180-559 505-559 309 0 482 214 477 537v118H365c15 134 115 234 263 234 111 0 198-40 261-121zM770-644c5-139-62-226-194-224-130 1-191 97-208 224h402" id="bo"/><g id="M"><use transform="matrix(0.010959201388888886,0,0,0.010959201388888886,0,0)" xlink:href="#be"/><use transform="matrix(0.010959201388888886,0,0,0.010959201388888886,8.383789062499998,0)" xlink:href="#bf"/><use transform="matrix(0.010959201388888886,0,0,0.010959201388888886,21.07454427083333,0)" xlink:href="#bg"/><use transform="matrix(0.010959201388888886,0,0,0.010959201388888886,33.710503472222214,0)" xlink:href="#bh"/><use transform="matrix(0.010959201388888886,0,0,0.010959201388888886,41.29427083333332,0)" xlink:href="#be"/><use transform="matrix(0.010959201388888886,0,0,0.010959201388888886,49.67805989583332,0)" xlink:href="#bi"/><use transform="matrix(0.010959201388888886,0,0,0.010959201388888886,61.21809895833332,0)" xlink:href="#bh"/><use transform="matrix(0.010959201388888886,0,0,0.010959201388888886,68.80186631944443,0)" xlink:href="#bj"/><use transform="matrix(0.010959201388888886,0,0,0.010959201388888886,80.83506944444443,0)" xlink:href="#bk"/><use transform="matrix(0.010959201388888886,0,0,0.010959201388888886,93.64637586805553,0)" xlink:href="#bl"/><use transform="matrix(0.010959201388888886,0,0,0.010959201388888886,99.59722222222221,0)" xlink:href="#bm"/><use transform="matrix(0.010959201388888886,0,0,0.010959201388888886,112.16742621527777,0)" xlink:href="#bk"/><use transform="matrix(0.010959201388888886,0,0,0.010959201388888886,124.97873263888889,0)" xlink:href="#be"/><use transform="matrix(0.010959201388888886,0,0,0.010959201388888886,133.36252170138889,0)" xlink:href="#bl"/><use transform="matrix(0.010959201388888886,0,0,0.010959201388888886,139.31336805555554,0)" xlink:href="#bm"/><use transform="matrix(0.010959201388888886,0,0,0.010959201388888886,151.8835720486111,0)" xlink:href="#bi"/><use transform="matrix(0.010959201388888886,0,0,0.010959201388888886,163.4236111111111,0)" xlink:href="#bh"/><use transform="matrix(0.010959201388888886,0,0,0.010959201388888886,171.0073784722222,0)" xlink:href="#bj"/><use transform="matrix(0.010959201388888886,0,0,0.010959201388888886,183.04058159722217,0)" xlink:href="#bm"/><use transform="matrix(0.010959201388888886,0,0,0.010959201388888886,195.61078559027774,0)" xlink:href="#bn"/><use transform="matrix(0.010959201388888886,0,0,0.010959201388888886,207.31521267361111,0)" xlink:href="#bo"/></g><g id="N"><use transform="matrix(0.010959201388888886,0,0,0.010959201388888886,0,0)" xlink:href="#ae"/><use transform="matrix(0.010959201388888886,0,0,0.010959201388888886,7.38650173611111,0)" xlink:href="#ad"/><use transform="matrix(0.010959201388888886,0,0,0.010959201388888886,19.27723524305555,0)" xlink:href="#aa"/><use transform="matrix(0.010959201388888886,0,0,0.010959201388888886,31.869357638888875,0)" xlink:href="#av"/><use transform="matrix(0.010959201388888886,0,0,0.010959201388888886,37.31608072916666,0)" xlink:href="#ap"/><use transform="matrix(0.010959201388888886,0,0,0.010959201388888886,49.52463107638888,0)" xlink:href="#aj"/><use transform="matrix(0.010959201388888886,0,0,0.010959201388888886,61.272894965277764,0)" xlink:href="#ad"/></g><g id="O"><use transform="matrix(0.010959201388888886,0,0,0.010959201388888886,0,0)" xlink:href="#am"/><use transform="matrix(0.010959201388888886,0,0,0.010959201388888886,5.446723090277777,0)" xlink:href="#ao"/></g><path d="M1121-976c0 225-142 341-344 379L1177 0H957L591-575H353V0H162v-1349h482c281 3 477 100 477 373zM633-726c181-1 296-73 296-247 0-149-101-223-304-223H353v470h280" id="bp"/><path d="M604-135c236 0 291-142 291-376v-838h190v859c5 340-142 510-480 510-326 0-463-164-463-492v-877h191v851c-3 222 46 363 271 363" id="bq"/><path d="M912-211c-10-84-18-177-18-274v-864h172V0H836L316-1130c7 79 16 167 16 254V0H162v-1349h222" id="br"/><path d="M-5 220v-96h1238v96H-5" id="bs"/><path d="M622-1349c296 4 497 117 497 404 0 282-193 424-485 431H353V0H162v-1349h460zm-15 684c195-3 320-88 320-277 0-184-129-255-328-254H353v531h254" id="bt"/><path d="M237 0v-1349h191v1193h672V0H237" id="bu"/><path d="M1034 0L896-382H333L196 0H0l510-1349h217L1228 0h-194zM847-531c-77-225-157-447-231-674-69 231-154 451-232 674h463" id="bv"/><path d="M116-856v-148h995v148H116zm0 512v-148h995v148H116" id="bw"/><path d="M614-1226c-167 1-283 53-283 213 0 183 186 193 334 234 230 63 463 120 463 409 0 286-219 387-518 390C309 23 131-98 79-338l185-37c34 165 149 248 351 246 184-2 324-58 324-238 0-203-207-221-372-266-210-57-422-111-422-377 0-267 201-356 470-360 279-5 430 101 480 324l-188 33c-28-141-121-215-293-213" id="bx"/><path d="M709-1193V0H519v-1193H76v-156h1076v156H709" id="by"/><g id="P"><use transform="matrix(0.010959201388888886,0,0,0.010959201388888886,0,0)" xlink:href="#bp"/><use transform="matrix(0.010959201388888886,0,0,0.010959201388888886,13.468858506944441,0)" xlink:href="#bq"/><use transform="matrix(0.010959201388888886,0,0,0.010959201388888886,26.937717013888882,0)" xlink:href="#br"/><use transform="matrix(0.010959201388888886,0,0,0.010959201388888886,40.40657552083332,0)" xlink:href="#bs"/><use transform="matrix(0.010959201388888886,0,0,0.010959201388888886,53.875434027777764,0)" xlink:href="#bt"/><use transform="matrix(0.010959201388888886,0,0,0.010959201388888886,67.3442925347222,0)" xlink:href="#bu"/><use transform="matrix(0.010959201388888886,0,0,0.010959201388888886,80.81315104166664,0)" xlink:href="#bv"/><use transform="matrix(0.010959201388888886,0,0,0.010959201388888886,94.28200954861109,0)" xlink:href="#br"/><use transform="matrix(0.010959201388888886,0,0,0.010959201388888886,107.75086805555553,0)" xlink:href="#bw"/><use transform="matrix(0.010959201388888886,0,0,0.010959201388888886,121.21972656249997,0)" xlink:href="#bx"/><use transform="matrix(0.010959201388888886,0,0,0.010959201388888886,134.6885850694444,0)" xlink:href="#by"/><use transform="matrix(0.010959201388888886,0,0,0.010959201388888886,148.15744357638883,0)" xlink:href="#bv"/><use transform="matrix(0.010959201388888886,0,0,0.010959201388888886,161.62630208333326,0)" xlink:href="#bp"/><use transform="matrix(0.010959201388888886,0,0,0.010959201388888886,175.0951605902777,0)" xlink:href="#by"/></g><g id="Q"><use transform="matrix(0.010959201388888886,0,0,0.010959201388888886,0,0)" xlink:href="#Z"/><use transform="matrix(0.010959201388888886,0,0,0.010959201388888886,12.80034722222222,0)" xlink:href="#ae"/></g><path d="M162 0v-1349h919v156H353v422h668v154H353v461h769V0H162" id="bz"/><path d="M713 0H515L10-1349h201C345-955 498-579 615-168c116-411 269-787 402-1181h201" id="bA"/><path d="M102-681c0-398 126-689 513-689 165 0 291 58 379 174s132 287 132 515c-1 318-88 554-298 657-123 61-317 58-438-3-206-104-288-341-288-654zm749 406c94-160 97-656-5-807-57-85-130-132-231-132-104 0-178 47-234 132-101 153-99 655 1 809 57 89 130 138 232 138 109 0 184-49 237-140" id="bB"/><path d="M385-1193v494h676v158H385V0H194v-1349h891v156H385" id="bC"/><path d="M202-1349h823v156H709v1037h316V0H202v-156h316v-1037H202v-156" id="bD"/><path d="M473-1349c438-1 655 221 652 661C1122-268 945-8 532 0H162v-1349h311zm42 1193c308-4 416-205 418-532 2-330-131-509-459-505H353v1037h162" id="bE"/><g id="R"><use transform="matrix(0.010959201388888886,0,0,0.010959201388888886,0,0)" xlink:href="#bx"/><use transform="matrix(0.010959201388888886,0,0,0.010959201388888886,13.468858506944441,0)" xlink:href="#bz"/><use transform="matrix(0.010959201388888886,0,0,0.010959201388888886,26.937717013888882,0)" xlink:href="#bp"/><use transform="matrix(0.010959201388888886,0,0,0.010959201388888886,40.40657552083332,0)" xlink:href="#bA"/><use transform="matrix(0.010959201388888886,0,0,0.010959201388888886,53.875434027777764,0)" xlink:href="#bz"/><use transform="matrix(0.010959201388888886,0,0,0.010959201388888886,67.3442925347222,0)" xlink:href="#bp"/><use transform="matrix(0.010959201388888886,0,0,0.010959201388888886,80.81315104166664,0)" xlink:href="#bs"/><use transform="matrix(0.010959201388888886,0,0,0.010959201388888886,94.28200954861109,0)" xlink:href="#bt"/><use transform="matrix(0.010959201388888886,0,0,0.010959201388888886,107.75086805555553,0)" xlink:href="#bp"/><use transform="matrix(0.010959201388888886,0,0,0.010959201388888886,121.21972656249997,0)" xlink:href="#bB"/><use transform="matrix(0.010959201388888886,0,0,0.010959201388888886,134.6885850694444,0)" xlink:href="#bC"/><use transform="matrix(0.010959201388888886,0,0,0.010959201388888886,148.15744357638883,0)" xlink:href="#bD"/><use transform="matrix(0.010959201388888886,0,0,0.010959201388888886,161.62630208333326,0)" xlink:href="#bu"/><use transform="matrix(0.010959201388888886,0,0,0.010959201388888886,175.0951605902777,0)" xlink:href="#bz"/><use transform="matrix(0.010959201388888886,0,0,0.010959201388888886,188.5640190972221,0)" xlink:href="#bs"/><use transform="matrix(0.010959201388888886,0,0,0.010959201388888886,202.03287760416654,0)" xlink:href="#bq"/><use transform="matrix(0.010959201388888886,0,0,0.010959201388888886,215.50173611111097,0)" xlink:href="#bt"/><use transform="matrix(0.010959201388888886,0,0,0.010959201388888886,228.97059461805537,0)" xlink:href="#bE"/><use transform="matrix(0.010959201388888886,0,0,0.010959201388888886,242.43945312499983,0)" xlink:href="#bv"/><use transform="matrix(0.010959201388888886,0,0,0.010959201388888886,255.90831163194426,0)" xlink:href="#by"/><use transform="matrix(0.010959201388888886,0,0,0.010959201388888886,269.3771701388887,0)" xlink:href="#bz"/><use transform="matrix(0.010959201388888886,0,0,0.010959201388888886,282.84602864583314,0)" xlink:href="#bw"/><use transform="matrix(0.010959201388888886,0,0,0.010959201388888886,296.3148871527776,0)" xlink:href="#by"/><use transform="matrix(0.010959201388888886,0,0,0.010959201388888886,309.78374565972206,0)" xlink:href="#bp"/><use transform="matrix(0.010959201388888886,0,0,0.010959201388888886,323.2526041666665,0)" xlink:href="#bq"/><use transform="matrix(0.010959201388888886,0,0,0.010959201388888886,336.721462673611,0)" xlink:href="#bz"/></g><path fill="#333" d="M663-916c-163-27-288 18-338 148V0H140v-1082h180l3 125c61-97 147-145 258-145 36 0 63 5 82 14v172" id="bF"/><path fill="#333" d="M599-131c141 0 220-65 285-146l113 88C906-50 770 20 589 20 281 21 93-214 93-545c0-223 93-397 233-485 74-48 154-72 240-72 300 2 449 218 445 537v77H278c0 197 129 357 321 357zm227-509c-3-180-88-310-260-310-170 0-264 140-282 310h542" id="bG"/><path fill="#333" d="M561-1102c238-4 403 126 403 351v498c0 99 13 178 38 237V0H808c-11-21-19-59-26-114C696-25 593 20 474 20c-199 0-368-130-365-320 4-251 214-359 490-356h180v-85c-1-135-86-212-229-212-115 0-232 67-233 171H131c20-205 206-316 430-320zM294-326c0 117 90 185 207 185 122 0 239-75 278-162v-222H634c-227 0-340 66-340 199" id="bH"/><path fill="#333" d="M520 20C244 20 95-247 95-550c0-298 151-550 427-552 127 0 227 43 301 130v-564h185V0H838l-9-116C755-25 652 20 520 20zm48-965c-210 0-288 177-288 416 0 218 87 392 286 392 117 0 203-53 257-158v-497c-55-102-140-153-255-153" id="bI"/><g id="S"><use transform="matrix(0.009765624999999998,0,0,0.009765624999999998,0,0)" xlink:href="#bF"/><use transform="matrix(0.009765624999999998,0,0,0.009765624999999998,6.582031249999999,0)" xlink:href="#bG"/><use transform="matrix(0.009765624999999998,0,0,0.009765624999999998,17.177734374999996,0)" xlink:href="#bH"/><use transform="matrix(0.009765624999999998,0,0,0.009765624999999998,28.056640624999996,0)" xlink:href="#bI"/></g><path fill="#333" d="M456 20C285 20 205-92 206-268v-671H9v-143h197v-262h185v262h202v143H391v671c-9 125 92 149 207 118V0c-49 13-96 20-142 20" id="bJ"/><path fill="#333" d="M1240-945c-141 0-250 95-250 227V0H804v-709c0-157-77-236-231-236-121 0-204 52-249 155V0H139v-1082h175l5 120c79-93 186-140 321-140 151 0 254 58 309 174 69-98 181-174 345-174 237 0 362 126 362 377V0h-185v-714c-2-159-67-231-231-231" id="bK"/><path fill="#333" d="M632-1102c291 0 422 251 422 573 0 297-141 548-419 549-131 0-235-42-310-125v521H140v-1498h169l9 120c75-93 180-140 314-140zm-53 971c207 0 290-180 290-419 0-218-92-395-292-395-112 0-196 50-252 149v517c55 99 140 148 254 148" id="bL"/><g id="T"><use transform="matrix(0.009765624999999998,0,0,0.009765624999999998,0,0)" xlink:href="#bJ"/><use transform="matrix(0.009765624999999998,0,0,0.009765624999999998,6.533203124999999,0)" xlink:href="#bK"/><use transform="matrix(0.009765624999999998,0,0,0.009765624999999998,24.062499999999996,0)" xlink:href="#bL"/></g><path fill="#333" d="M584 20C278 26 81-227 91-551c10-320 175-545 491-551 308-5 503 247 494 573-9 322-175 543-492 549zm-2-970c-208 0-305 185-305 421 0 216 106 398 307 398 211 0 307-186 307-420 0-214-109-399-309-399" id="bM"/><g id="U"><use transform="matrix(0.009765624999999998,0,0,0.009765624999999998,0,0)" xlink:href="#bM"/><use transform="matrix(0.009765624999999998,0,0,0.009765624999999998,11.406249999999998,0)" xlink:href="#bF"/></g><g id="V"><use transform="matrix(0.009765624999999998,0,0,0.009765624999999998,0,0)" xlink:href="#bK"/><use transform="matrix(0.009765624999999998,0,0,0.009765624999999998,17.529296874999996,0)" xlink:href="#bG"/><use transform="matrix(0.009765624999999998,0,0,0.009765624999999998,28.124999999999996,0)" xlink:href="#bK"/></g><path fill="#333" d="M177 125H18l608-1581h158" id="bN"/><path fill="#333" d="M1098-255l208-827h185L1176 0h-150L763-820 507 0H357L43-1082h184l213 810 252-810h149" id="bO"/><path fill="#333" d="M341 0H156v-1082h185V0zm-91-1264c-68 0-108-42-109-105 0-62 41-107 109-107s110 44 110 107-42 105-110 105" id="bP"/><g id="W"><use transform="matrix(0.009765624999999998,0,0,0.009765624999999998,0,0)" xlink:href="#bF"/><use transform="matrix(0.009765624999999998,0,0,0.009765624999999998,6.582031249999999,0)" xlink:href="#bG"/><use transform="matrix(0.009765624999999998,0,0,0.009765624999999998,17.177734374999996,0)" xlink:href="#bH"/><use transform="matrix(0.009765624999999998,0,0,0.009765624999999998,28.056640624999996,0)" xlink:href="#bI"/><use transform="matrix(0.009765624999999998,0,0,0.009765624999999998,39.33593749999999,0)" xlink:href="#bN"/><use transform="matrix(0.009765624999999998,0,0,0.009765624999999998,47.57812499999999,0)" xlink:href="#bO"/><use transform="matrix(0.009765624999999998,0,0,0.009765624999999998,62.607421874999986,0)" xlink:href="#bF"/><use transform="matrix(0.009765624999999998,0,0,0.009765624999999998,69.37499999999999,0)" xlink:href="#bP"/><use transform="matrix(0.009765624999999998,0,0,0.009765624999999998,74.22851562499999,0)" xlink:href="#bJ"/><use transform="matrix(0.009765624999999998,0,0,0.009765624999999998,80.76171874999999,0)" xlink:href="#bG"/></g><path fill="#333" d="M503-687l240-395h216L605-547 970 0H756L506-405 256 0H41l365-547-354-535h214" id="bQ"/><path fill="#333" d="M589-945c-131 0-219 81-264 174V0H140v-1082h175l6 136c83-104 191-156 324-156 229 0 346 129 346 387V0H806v-716c-2-153-65-229-217-229" id="bR"/><path fill="#333" d="M341 0H156v-1536h185V0" id="bS"/><g id="X"><use transform="matrix(0.009765624999999998,0,0,0.009765624999999998,0,0)" xlink:href="#bG"/><use transform="matrix(0.009765624999999998,0,0,0.009765624999999998,10.595703124999998,0)" xlink:href="#bQ"/><use transform="matrix(0.009765624999999998,0,0,0.009765624999999998,20.507812499999996,0)" xlink:href="#bJ"/><use transform="matrix(0.009765624999999998,0,0,0.009765624999999998,27.041015624999996,0)" xlink:href="#bG"/><use transform="matrix(0.009765624999999998,0,0,0.009765624999999998,37.63671874999999,0)" xlink:href="#bF"/><use transform="matrix(0.009765624999999998,0,0,0.009765624999999998,44.40429687499999,0)" xlink:href="#bR"/><use transform="matrix(0.009765624999999998,0,0,0.009765624999999998,55.43945312499999,0)" xlink:href="#bH"/><use transform="matrix(0.009765624999999998,0,0,0.009765624999999998,66.31835937499999,0)" xlink:href="#bS"/></g></defs></g></svg>